<?xml version="1.0" encoding="utf-8"?>
<!-- Generator: Adobe Illustrator 16.0.0, SVG Export Plug-In . SVG Version: 6.00 Build 0)  -->
<!DOCTYPE svg PUBLIC "-//W3C//DTD SVG 1.1//EN" "http://www.w3.org/Graphics/SVG/1.1/DTD/svg11.dtd">
<svg version="1.1" id="圖層_1" xmlns="http://www.w3.org/2000/svg" xmlns:xlink="http://www.w3.org/1999/xlink" x="0px" y="0px"
	 width="13.887px" height="11.74px" viewBox="0 0 13.887 11.74" enable-background="new 0 0 13.887 11.74" xml:space="preserve">
<g>
	<g>
		<g>
			<g>
				<path fill="#1C4197" d="M10.711,10.389c-0.931,0-1.707-0.774-1.707-1.708V3.006c0-0.931,0.775-1.676,1.707-1.676
					c0.856,0,1.581,0.654,1.692,1.483h0.385c-0.114-1.083-0.993-1.866-2.063-1.866c-0.833,0-1.551,0.487-1.879,1.198
					c-0.33-0.711-1.047-1.208-1.883-1.208c-0.833,0-1.552,0.491-1.881,1.202c-0.328-0.71-1.064-1.206-1.896-1.206
					c-1.145,0-2.091,0.929-2.091,2.073v5.677c0,1.143,0.947,2.072,2.091,2.072c0.833,0,1.56-0.493,1.889-1.202
					c0.33,0.709,1.053,1.202,1.885,1.202c0.836,0,1.555-0.493,1.885-1.202c0.329,0.709,1.05,1.218,1.881,1.218
					c0.913,0,1.684-0.622,1.966-1.388h-0.412C12.017,9.957,11.405,10.389,10.711,10.389z M5.242,2.813v0.064h0.038
					C5.361,1.984,6.07,1.331,6.948,1.331c0.93,0,1.675,0.744,1.675,1.676v5.676c0,0.932-0.76,1.689-1.69,1.689
					c-0.935,0-1.69-0.758-1.69-1.689V5.748H4.859v2.935c0,0.932-0.759,1.688-1.69,1.688c-0.931,0-1.688-0.756-1.688-1.688V3.006
					c0-0.931,0.772-1.676,1.706-1.676c0.878,0,1.616,0.654,1.696,1.547"/>
				<path fill="#1C4197" d="M12.919,2.813c0,0.032-0.014,0.064-0.034,0.088c-0.025,0.027-0.061,0.042-0.096,0.042h-0.386
					c-0.063,0-0.121-0.047-0.129-0.112C12.17,2.05,11.499,1.46,10.711,1.46c-0.869,0-1.577,0.692-1.577,1.545v5.677
					c0,0.854,0.723,1.577,1.577,1.577c0.616,0,1.199-0.375,1.451-0.928c0.021-0.049,0.065-0.079,0.116-0.079h0.412
					c0.041,0,0.083,0.023,0.106,0.056c0.023,0.034,0.029,0.077,0.015,0.119c-0.318,0.864-1.177,1.473-2.087,1.473
					c-0.768,0-1.48-0.413-1.881-1.075c-0.397,0.649-1.114,1.06-1.885,1.06c-0.773,0-1.488-0.41-1.885-1.06
					c-0.398,0.649-1.114,1.06-1.889,1.06c-1.224,0-2.219-0.989-2.219-2.202V3.006c0-1.215,0.995-2.203,2.219-2.203
					c0.779,0,1.499,0.409,1.896,1.062c0.398-0.651,1.111-1.059,1.882-1.059c0.769,0,1.485,0.411,1.885,1.065
					c0.393-0.648,1.105-1.054,1.879-1.054c1.151,0,2.072,0.835,2.191,1.983C12.919,2.805,12.919,2.811,12.919,2.813z M12.513,2.685
					h0.127c-0.164-0.939-0.948-1.605-1.915-1.605c-0.754,0-1.445,0.439-1.762,1.12C8.941,2.247,8.898,2.275,8.848,2.275
					c-0.051,0-0.098-0.028-0.12-0.076C8.408,1.511,7.716,1.064,6.963,1.064c-0.753,0-1.444,0.443-1.764,1.13
					C5.179,2.24,5.133,2.27,5.082,2.27c-0.052,0-0.096-0.03-0.119-0.074C4.646,1.507,3.947,1.063,3.186,1.063
					c-1.08,0-1.961,0.871-1.961,1.942v5.677c0,1.07,0.881,1.942,1.961,1.942c0.757,0,1.455-0.443,1.771-1.131
					c0.021-0.047,0.068-0.075,0.117-0.075c0.052,0,0.097,0.028,0.118,0.075c0.317,0.688,1.011,1.131,1.767,1.131
					c0.753,0,1.449-0.444,1.768-1.131c0.021-0.047,0.066-0.075,0.117-0.075c0.05,0,0.095,0.028,0.117,0.075
					c0.322,0.695,1.016,1.146,1.764,1.146c0.74,0,1.443-0.457,1.769-1.13h-0.132c-0.31,0.605-0.962,1.006-1.65,1.006
					c-0.996,0-1.837-0.841-1.837-1.836V3.006c0-0.995,0.825-1.804,1.837-1.804C11.589,1.202,12.344,1.832,12.513,2.685z
					 M8.752,3.006v5.677c0,1.003-0.814,1.819-1.82,1.819c-1.002,0-1.821-0.814-1.821-1.819V5.876H4.988v2.805
					c0,1.005-0.814,1.821-1.819,1.821c-1.005,0-1.821-0.816-1.821-1.821V3.006c0-0.995,0.825-1.804,1.837-1.804
					c0.957,0,1.741,0.715,1.825,1.664c0.01,0.071-0.047,0.133-0.115,0.14C4.822,3.013,4.76,2.96,4.752,2.887
					C4.682,2.075,4.005,1.46,3.186,1.46c-0.871,0-1.577,0.692-1.577,1.545v5.677c0,0.861,0.7,1.562,1.561,1.562
					c0.86,0,1.56-0.7,1.56-1.562V5.748c0-0.073,0.058-0.13,0.13-0.13h0.383c0.071,0,0.129,0.057,0.129,0.13v2.935
					c0,0.861,0.7,1.562,1.562,1.562c0.86,0,1.563-0.7,1.563-1.562V3.006c0-0.867-0.679-1.545-1.546-1.545
					c-0.818,0-1.463,0.6-1.538,1.429C5.403,2.954,5.349,3.006,5.28,3.006H5.242c-0.072,0-0.129-0.057-0.129-0.128V2.813
					c0-0.044,0.022-0.085,0.06-0.108c0.151-0.881,0.875-1.502,1.775-1.502C7.961,1.202,8.752,1.993,8.752,3.006z"/>
			</g>
			<g>
				<path fill="#1C4197" d="M10.725,10.804c-0.789,0-1.521-0.461-1.881-1.18c-0.355,0.709-1.087,1.164-1.885,1.164
					c-0.796,0-1.529-0.455-1.885-1.164c-0.357,0.709-1.091,1.164-1.889,1.164c-1.172,0-2.12-0.943-2.12-2.105V3.006
					c0-1.16,0.949-2.105,2.12-2.105c0.801,0,1.542,0.454,1.896,1.165C5.434,1.36,6.168,0.904,6.963,0.904
					c0.796,0,1.526,0.457,1.883,1.167c0.354-0.704,1.083-1.157,1.879-1.157c1.101,0,1.979,0.798,2.094,1.896l0.004,0.034h-0.449
					l-0.004-0.027c-0.108-0.83-0.821-1.455-1.66-1.455c-0.922,0-1.674,0.737-1.674,1.643v5.676c0,0.908,0.767,1.675,1.674,1.675
					c0.652,0,1.271-0.398,1.539-0.985l0.011-0.018h0.475L12.72,9.392C12.414,10.225,11.597,10.804,10.725,10.804z M8.844,9.477
					L8.872,9.54c0.338,0.729,1.065,1.2,1.853,1.2c0.831,0,1.611-0.543,1.917-1.325h-0.343c-0.282,0.604-0.916,1.005-1.588,1.005
					c-0.941,0-1.737-0.796-1.737-1.737V3.006c0-0.941,0.78-1.708,1.737-1.708c0.86,0,1.593,0.637,1.719,1.483h0.321
					c-0.124-1.047-0.969-1.8-2.024-1.8c-0.793,0-1.522,0.462-1.853,1.177L8.848,2.219L8.817,2.158
					c-0.337-0.722-1.063-1.19-1.854-1.19c-0.792,0-1.518,0.466-1.854,1.185L5.082,2.215L5.053,2.152
					c-0.335-0.72-1.068-1.187-1.868-1.187c-1.134,0-2.06,0.915-2.06,2.04v5.677c0,1.125,0.925,2.04,2.06,2.04
					c0.796,0,1.524-0.464,1.859-1.183l0.029-0.063L5.103,9.54c0.332,0.719,1.063,1.183,1.855,1.183c0.794,0,1.521-0.464,1.856-1.183
					L8.844,9.477z M6.933,10.406c-0.951,0-1.722-0.772-1.722-1.724V5.78H4.893v2.902c0,0.953-0.776,1.724-1.724,1.724
					c-0.951,0-1.721-0.772-1.721-1.724V3.006c0-0.941,0.779-1.708,1.738-1.708c0.904,0,1.646,0.676,1.729,1.575L4.851,2.881
					c-0.08-0.866-0.794-1.519-1.667-1.519c-0.924,0-1.675,0.738-1.675,1.643v5.677c0,0.914,0.742,1.66,1.658,1.66
					c0.915,0,1.659-0.746,1.659-1.66V5.717H5.27v2.966c0,0.914,0.746,1.66,1.662,1.66c0.916,0,1.659-0.746,1.659-1.66V3.006
					c0-0.92-0.722-1.643-1.643-1.643C6.079,1.363,5.392,2,5.311,2.881L5.31,2.91H5.21V2.813h0.046
					c0.108-0.881,0.812-1.515,1.692-1.515c0.958,0,1.706,0.751,1.706,1.708v5.677C8.654,9.634,7.878,10.406,6.933,10.406z"/>
				<path fill="#1C4197" d="M12.952,2.846c0,0.032-0.013,0.064-0.033,0.088c-0.026,0.027-0.06,0.042-0.097,0.042h-0.449
					c-0.067,0-0.124-0.051-0.13-0.117c-0.103-0.789-0.761-1.367-1.532-1.367c-0.851,0-1.544,0.679-1.544,1.514v5.676
					c0,0.837,0.705,1.545,1.544,1.545c0.603,0,1.172-0.365,1.422-0.91c0.021-0.046,0.077-0.095,0.128-0.095h0.475
					c0.04,0,0.081,0.021,0.104,0.056c0.023,0.032,0.029,0.08,0.016,0.115l-0.014,0.044c-0.323,0.882-1.193,1.496-2.117,1.496
					c-0.754,0-1.473-0.406-1.881-1.051c-0.408,0.636-1.124,1.033-1.885,1.033c-0.763,0-1.478-0.397-1.885-1.033
					c-0.411,0.636-1.129,1.033-1.889,1.033c-1.24,0.002-2.251-1.001-2.251-2.233V3.006c0-1.232,1.011-2.233,2.252-2.233
					c0.765,0,1.489,0.397,1.896,1.031c0.405-0.632,1.123-1.029,1.881-1.029c0.759,0,1.476,0.399,1.885,1.034
					c0.404-0.628,1.119-1.025,1.879-1.025c1.168,0,2.102,0.848,2.222,2.011l0.002,0.039C12.952,2.839,12.952,2.843,12.952,2.846z
					 M12.538,2.652h0.06C12.427,1.75,11.66,1.11,10.725,1.11c-0.74,0-1.424,0.435-1.731,1.103l-0.03,0.062
					C8.945,2.319,8.898,2.348,8.849,2.35c-0.052,0-0.095-0.027-0.119-0.071l-0.03-0.064C8.385,1.537,7.704,1.098,6.963,1.098
					c-0.741,0-1.421,0.436-1.735,1.11L5.2,2.268c-0.02,0.047-0.065,0.078-0.118,0.078c-0.052,0-0.096-0.028-0.119-0.076L4.937,2.209
					C4.622,1.533,3.934,1.096,3.186,1.096c-1.064,0-1.929,0.857-1.929,1.91v5.677c0,1.056,0.863,1.911,1.929,1.911
					c0.744,0,1.428-0.437,1.741-1.109l0.031-0.067c0.02-0.045,0.066-0.072,0.116-0.072c0.052,0,0.097,0.029,0.118,0.074l0.03,0.062
					c0.308,0.677,0.991,1.113,1.736,1.113c0.744,0,1.424-0.437,1.739-1.111l0.029-0.062c0.02-0.047,0.066-0.076,0.117-0.076
					c0.05,0,0.095,0.029,0.117,0.076L8.99,9.484c0.317,0.684,0.998,1.124,1.734,1.124c0.707,0,1.389-0.428,1.717-1.064h-0.063
					c-0.32,0.606-0.979,1.007-1.67,1.007c-1.012,0-1.867-0.855-1.867-1.868V3.006c0-1.013,0.839-1.836,1.867-1.836
					C11.591,1.17,12.358,1.799,12.538,2.652z M8.782,3.006v5.677c0,1.022-0.828,1.854-1.85,1.854c-1.023,0-1.853-0.831-1.853-1.854
					V5.91H5.021v2.772c0,1.022-0.832,1.854-1.853,1.854c-1.022,0-1.852-0.832-1.852-1.854V3.006c0-1.013,0.837-1.836,1.868-1.836
					c0.97,0,1.77,0.729,1.857,1.692C5.048,2.94,4.996,2.996,4.925,3.004L4.862,3.009C4.829,3.013,4.796,3.002,4.769,2.98
					C4.74,2.958,4.725,2.928,4.724,2.893c-0.073-0.8-0.736-1.401-1.538-1.401c-0.851,0-1.545,0.679-1.545,1.514v5.677
					c0,0.843,0.684,1.53,1.529,1.53c0.843,0,1.528-0.688,1.528-1.53V5.717c0-0.07,0.059-0.129,0.13-0.129h0.444
					c0.073,0,0.13,0.059,0.13,0.129v2.966c0,0.843,0.688,1.53,1.532,1.53c0.841,0,1.529-0.688,1.529-1.53V3.006
					c0-0.848-0.666-1.514-1.513-1.514c-0.8,0-1.431,0.592-1.506,1.401C5.435,2.96,5.378,3.038,5.31,3.038H5.21
					c-0.071,0-0.129-0.058-0.129-0.128V2.813c0-0.044,0.022-0.085,0.06-0.108C5.295,1.809,6.039,1.17,6.948,1.17
					C7.976,1.17,8.782,1.975,8.782,3.006z"/>
			</g>
		</g>
		<g>
			<rect x="3.362" y="5.717" fill="#1C4197" width="1.77" height="0.452"/>
			<path fill="#1C4197" d="M5.26,5.717v0.452c0,0.07-0.058,0.129-0.128,0.129h-1.77c-0.071,0-0.128-0.06-0.128-0.129V5.717
				c0-0.07,0.057-0.129,0.128-0.129h1.77C5.202,5.587,5.26,5.646,5.26,5.717z M5.001,6.039V5.847H3.492v0.192H5.001z"/>
		</g>
		<g>
			<rect x="4.844" y="2.811" fill="#1C4197" width="0.466" height="1.489"/>
			<path fill="#1C4197" d="M5.441,2.811V4.3c0,0.073-0.06,0.132-0.13,0.132H4.844c-0.071,0-0.128-0.059-0.128-0.132V2.811
				c0-0.071,0.057-0.129,0.128-0.129H5.31C5.381,2.682,5.441,2.74,5.441,2.811z M5.182,4.174V2.94H4.976v1.234H5.182z"/>
		</g>
	</g>
</g>
</svg>
