<?xml version="1.0" encoding="utf-8"?>
<!-- Generator: Adobe Illustrator 16.0.0, SVG Export Plug-In . SVG Version: 6.00 Build 0)  -->
<!DOCTYPE svg PUBLIC "-//W3C//DTD SVG 1.1//EN" "http://www.w3.org/Graphics/SVG/1.1/DTD/svg11.dtd">
<svg version="1.1" id="圖層_1" xmlns="http://www.w3.org/2000/svg" xmlns:xlink="http://www.w3.org/1999/xlink" x="0px" y="0px"
	 width="65.518px" height="65.19px" viewBox="0 0 65.518 65.19" enable-background="new 0 0 65.518 65.19" xml:space="preserve">
<path fill="#1E4199" d="M31.743,7.042c0.946-1.04,2.562-1.116,3.601-0.169c1.04,0.946,1.116,2.561,0.169,3.6
	c-0.946,1.04-2.56,1.116-3.6,0.17C30.873,9.696,30.797,8.082,31.743,7.042z M32.385,10.123c0.754,0.686,1.922,0.63,2.609-0.123
	c0.685-0.753,0.631-1.921-0.123-2.608c-0.754-0.685-1.922-0.631-2.608,0.124C31.577,8.269,31.631,9.436,32.385,10.123z
	 M33.322,9.093c-0.183-0.167-0.202-0.453-0.029-0.641c0.166-0.184,0.459-0.198,0.641-0.03c0.184,0.166,0.198,0.457,0.03,0.641
	C33.794,9.251,33.506,9.261,33.322,9.093z"/>
<path fill="#1E4199" d="M38.087,7.063c1.22-0.697,2.78-0.27,3.477,0.951c0.696,1.222,0.269,2.781-0.952,3.477
	c-1.222,0.697-2.779,0.27-3.477-0.951C36.438,9.317,36.866,7.759,38.087,7.063z M37.745,10.191c0.505,0.885,1.633,1.193,2.52,0.688
	c0.884-0.505,1.193-1.631,0.688-2.518c-0.504-0.886-1.632-1.195-2.518-0.688C37.548,8.178,37.239,9.305,37.745,10.191z
	 M38.953,9.501c-0.122-0.215-0.051-0.494,0.171-0.621c0.215-0.122,0.497-0.044,0.62,0.171c0.123,0.215,0.045,0.497-0.17,0.621
	C39.353,9.797,39.077,9.716,38.953,9.501z"/>
<path fill="#1E4199" stroke="#1E4199" stroke-width="0.1215" stroke-miterlimit="10" d="M11.299,40.172
	c0.105-0.31,0.197-0.586,0.101-0.894c-0.124-0.393-0.613-0.665-1.076-0.753l0.248-0.691c0.679,0.162,1.312,0.56,1.527,1.241
	c0.132,0.421,0.058,0.825-0.078,1.206c-0.104,0.308-0.199,0.578-0.103,0.885c0.128,0.401,0.61,0.678,1.077,0.76l-0.245,0.691
	c-0.68-0.165-1.313-0.558-1.527-1.239C11.087,40.949,11.164,40.55,11.299,40.172z M9.598,40.709
	c0.104-0.313,0.196-0.588,0.102-0.894c-0.125-0.396-0.609-0.67-1.076-0.753L8.87,38.37c0.679,0.162,1.312,0.56,1.526,1.241
	c0.135,0.423,0.06,0.826-0.076,1.208c-0.104,0.308-0.199,0.576-0.102,0.883c0.125,0.401,0.616,0.674,1.077,0.762l-0.246,0.691
	c-0.683-0.169-1.314-0.56-1.529-1.239C9.386,41.486,9.462,41.087,9.598,40.709z"/>
<path fill="#1E4199" stroke="#1E4199" stroke-width="0.1215" stroke-miterlimit="10" d="M10.177,34.048
	c0.195-0.263,0.37-0.495,0.372-0.816c0.003-0.414-0.378-0.823-0.79-1.049l0.448-0.58c0.595,0.363,1.076,0.937,1.069,1.651
	c-0.004,0.441-0.2,0.804-0.446,1.121c-0.194,0.261-0.367,0.49-0.37,0.81c-0.005,0.421,0.37,0.83,0.788,1.056L10.8,36.819
	c-0.595-0.366-1.075-0.936-1.068-1.649C9.736,34.723,9.932,34.366,10.177,34.048z M8.396,34.034
	c0.194-0.263,0.368-0.498,0.372-0.817c0.004-0.414-0.371-0.823-0.789-1.05l0.446-0.58c0.596,0.362,1.076,0.936,1.069,1.649
	c-0.004,0.44-0.2,0.804-0.445,1.125c-0.194,0.261-0.369,0.486-0.371,0.808c-0.005,0.42,0.375,0.83,0.789,1.055l-0.449,0.579
	c-0.594-0.366-1.074-0.934-1.068-1.646C7.954,34.707,8.15,34.349,8.396,34.034z"/>
<g>
	
		<path fill="#1E4199" stroke="#1E4199" stroke-width="0.4807" stroke-linecap="round" stroke-linejoin="round" stroke-miterlimit="10" d="
		M47.957,45.316l0.841,3.232l-4.327,3.846l-0.841-3.231L47.957,45.316z M44.003,49.275c0.047,0.169,0.54,2.081,0.661,2.504
		l3.759-3.343c-0.046-0.171-0.539-2.083-0.659-2.504L44.003,49.275z"/>
</g>
<g>
	
		<path fill="#1E4199" stroke="#1E4199" stroke-width="0.4807" stroke-linecap="round" stroke-linejoin="round" stroke-miterlimit="10" d="
		M51.202,44.244l0.842,3.232l-4.328,3.848l-0.841-3.231L51.202,44.244z M47.249,48.203c0.046,0.171,0.539,2.083,0.659,2.503
		l3.76-3.341c-0.046-0.171-0.538-2.082-0.659-2.505L47.249,48.203z"/>
</g>
<g>
	<path fill="#1E4199" d="M47.067,16.744c-0.381-0.089-0.793-0.311-1.233-0.668c-0.575-0.465-0.892-0.999-0.947-1.604
		c-0.057-0.604,0.143-1.188,0.598-1.752c0.484-0.6,1.063-0.937,1.734-1.01c0.674-0.075,1.305,0.127,1.896,0.605
		c0.366,0.296,0.636,0.592,0.813,0.888l-0.658,0.813c-0.129-0.353-0.354-0.659-0.676-0.918c-0.353-0.285-0.726-0.403-1.12-0.357
		c-0.396,0.047-0.747,0.26-1.053,0.638c-0.294,0.362-0.425,0.735-0.395,1.114c0.03,0.38,0.219,0.71,0.563,0.99
		c0.33,0.265,0.696,0.429,1.101,0.49L47.067,16.744z"/>
	<path fill="#1E4199" d="M49.979,20.456l-0.795-0.961l0.478-1.369c0.038-0.104,0.067-0.199,0.092-0.286
		c0.023-0.087,0.04-0.167,0.046-0.242c0.008-0.074,0.004-0.142-0.01-0.204c-0.016-0.062-0.044-0.119-0.088-0.17l-0.186-0.226
		l-1.424,1.176l-0.691-0.837l3.717-3.073l1.097,1.328c0.746,0.902,0.782,1.631,0.108,2.188c-0.131,0.107-0.266,0.187-0.408,0.238
		c-0.142,0.05-0.287,0.076-0.436,0.076s-0.298-0.024-0.446-0.075c-0.148-0.049-0.294-0.123-0.434-0.219l-0.012,0.009
		c0.029,0.069,0.045,0.146,0.049,0.23s0,0.172-0.012,0.263c-0.011,0.091-0.029,0.184-0.052,0.277
		c-0.024,0.093-0.048,0.182-0.076,0.265L49.979,20.456z M51.184,15.621l-1.035,0.855l0.301,0.363
		c0.148,0.18,0.319,0.281,0.513,0.304c0.197,0.023,0.374-0.029,0.528-0.158c0.325-0.268,0.327-0.598,0.005-0.986L51.184,15.621z"/>
	<path fill="#1E4199" d="M51.435,23.249l-1.396-2.532l4.221-2.33l1.346,2.434l-0.775,0.428l-0.819-1.484l-0.939,0.518l0.762,1.381
		l-0.77,0.426l-0.764-1.381l-0.964,0.533l0.871,1.581L51.435,23.249z"/>
	<path fill="#1E4199" d="M52.988,27.881l-0.356-1.129l0.922-0.648l-0.516-1.637l-1.125-0.001l-0.354-1.123l5.127,0.228l0.388,1.229
		L52.988,27.881z M54.274,25.616l1.391-0.981c0.104-0.072,0.233-0.141,0.39-0.208l-0.009-0.025
		c-0.138,0.032-0.279,0.046-0.427,0.046l-1.716-0.011L54.274,25.616z"/>
	<path fill="#1E4199" d="M57.215,30.711l-0.169-1.364l-3.907,0.481l-0.134-1.081l3.908-0.482l-0.166-1.357l0.877-0.109l0.468,3.805
		L57.215,30.711z"/>
	<path fill="#1E4199" d="M53.215,32.76l0.019-1.086l4.821,0.083l-0.019,1.087L53.215,32.76z"/>
	<path fill="#1E4199" d="M57.283,38.483l-4.466-2.462l0.21-1.214l5.032-0.79l-0.201,1.152l-3.478,0.416
		c-0.189,0.022-0.354,0.027-0.491,0.015l-0.003,0.021c0.145,0.041,0.302,0.104,0.469,0.188l3.122,1.556L57.283,38.483z"/>
	<path fill="#1E4199" d="M51.321,40.691l1.024-2.704l4.51,1.705l-0.984,2.603l-0.827-0.313l0.6-1.587l-1.004-0.379l-0.558,1.476
		l-0.823-0.312l0.558-1.476l-1.031-0.389l-0.64,1.688L51.321,40.691z"/>
	<path fill="#1E4199" d="M35.305,52.819c0.396-0.37,0.936-0.637,1.615-0.796c0.756-0.177,1.4-0.107,1.934,0.21
		c0.533,0.313,0.886,0.839,1.058,1.573c0.173,0.738,0.076,1.396-0.292,1.972c-0.366,0.575-0.945,0.956-1.735,1.143
		c-0.498,0.114-0.952,0.149-1.364,0.101l-0.232-0.993c0.412,0.126,0.88,0.128,1.403,0.004c0.438-0.102,0.763-0.328,0.973-0.676
		c0.209-0.352,0.258-0.765,0.146-1.239c-0.111-0.483-0.324-0.826-0.634-1.033c-0.308-0.207-0.674-0.261-1.097-0.161
		c-0.253,0.058-0.445,0.143-0.576,0.249l0.214,0.917l0.939-0.222l0.197,0.845l-1.996,0.47L35.305,52.819z"/>
	<path fill="#1E4199" d="M30.479,52.616l1.247-0.019l0.77,1.227c0.058,0.094,0.113,0.178,0.166,0.251s0.106,0.136,0.159,0.188
		c0.054,0.051,0.109,0.09,0.167,0.118c0.057,0.026,0.12,0.039,0.186,0.037l0.293-0.004l-0.03-1.846l1.087-0.019l0.078,4.822
		l-1.721,0.028c-1.17,0.019-1.763-0.407-1.777-1.282c-0.003-0.168,0.021-0.323,0.07-0.468c0.049-0.143,0.12-0.272,0.212-0.387
		c0.093-0.119,0.205-0.218,0.336-0.303c0.132-0.086,0.28-0.152,0.442-0.203v-0.013c-0.072-0.021-0.142-0.057-0.21-0.105
		c-0.068-0.049-0.135-0.108-0.198-0.175c-0.063-0.065-0.125-0.137-0.183-0.214c-0.058-0.075-0.112-0.15-0.16-0.226L30.479,52.616z
		 M33.502,56.577l-0.021-1.343l-0.471,0.009c-0.233,0.004-0.419,0.075-0.558,0.213c-0.141,0.137-0.211,0.308-0.208,0.511
		c0.007,0.421,0.263,0.627,0.767,0.617L33.502,56.577z"/>
	<path fill="#1E4199" d="M28.352,52.084c0.676,0.137,1.183,0.472,1.518,0.999c0.336,0.525,0.432,1.144,0.288,1.85
		c-0.153,0.748-0.493,1.308-1.021,1.681c-0.527,0.372-1.147,0.486-1.861,0.34c-0.674-0.137-1.175-0.471-1.5-0.997
		c-0.326-0.527-0.415-1.151-0.268-1.874c0.152-0.742,0.491-1.296,1.015-1.664C27.048,52.054,27.657,51.942,28.352,52.084z
		 M27.492,56.043c0.374,0.076,0.699-0.002,0.976-0.237c0.277-0.236,0.462-0.584,0.557-1.046c0.096-0.468,0.062-0.86-0.102-1.176
		c-0.165-0.319-0.424-0.514-0.78-0.586c-0.367-0.076-0.685-0.003-0.955,0.218c-0.269,0.221-0.452,0.565-0.548,1.035
		c-0.101,0.49-0.074,0.893,0.079,1.208S27.13,55.968,27.492,56.043z"/>
	<path fill="#1E4199" d="M23.686,50.532c0.624,0.296,1.037,0.737,1.237,1.331c0.201,0.594,0.147,1.215-0.163,1.868
		c-0.326,0.688-0.789,1.151-1.39,1.388c-0.6,0.237-1.23,0.199-1.889-0.114c-0.622-0.295-1.028-0.734-1.22-1.323
		c-0.191-0.59-0.129-1.218,0.187-1.884c0.325-0.686,0.785-1.142,1.381-1.373C22.427,50.193,23.045,50.229,23.686,50.532z
		 M21.909,54.174c0.344,0.164,0.679,0.164,1.004,0c0.325-0.161,0.588-0.456,0.79-0.881c0.204-0.434,0.265-0.822,0.181-1.168
		c-0.083-0.349-0.289-0.599-0.617-0.755c-0.339-0.161-0.665-0.165-0.979-0.015s-0.574,0.441-0.779,0.875
		c-0.214,0.452-0.284,0.851-0.211,1.192C21.371,53.767,21.575,54.017,21.909,54.174z"/>
	<path fill="#1E4199" d="M14.926,50.548l4.286-2.765l0.967,0.759l-1.688,4.808l-0.921-0.723l1.283-3.261
		c0.07-0.176,0.144-0.322,0.221-0.439l-0.016-0.011c-0.105,0.108-0.234,0.216-0.387,0.323L15.82,51.25L14.926,50.548z"/>
	<path fill="#1E4199" d="M11.66,46.802l3.384-0.817l1.307-1.111l0.704,0.828L15.763,46.8l-1.391,3.192l-0.804-0.948l0.867-1.756
		c0.018-0.03,0.093-0.145,0.228-0.34l-0.009-0.01c-0.142,0.083-0.26,0.137-0.357,0.165l-1.892,0.573L11.66,46.802z"/>
	<path fill="#1E4199" d="M12.048,27.83l-4.622-1.375l0.487-1.637c0.489-1.642,1.483-2.239,2.986-1.792
		c0.719,0.213,1.228,0.609,1.524,1.185c0.297,0.576,0.334,1.236,0.112,1.982L12.048,27.83z M8.583,25.666l2.93,0.872l0.153-0.516
		c0.134-0.451,0.104-0.846-0.09-1.183c-0.194-0.337-0.524-0.575-0.991-0.713c-0.44-0.131-0.825-0.106-1.153,0.073
		c-0.328,0.179-0.561,0.499-0.697,0.959L8.583,25.666z"/>
	<path fill="#1E4199" d="M14.943,20.678l-1.361,2.552l-4.254-2.27l1.31-2.454l0.78,0.416l-0.797,1.496l0.946,0.504l0.743-1.391
		l0.777,0.414l-0.742,1.392l0.973,0.52l0.849-1.594L14.943,20.678z"/>
	<path fill="#1E4199" d="M14.992,20.268l-0.849-0.662c0.249-0.053,0.476-0.145,0.681-0.275c0.205-0.13,0.379-0.288,0.522-0.471
		c0.084-0.108,0.147-0.21,0.191-0.305c0.043-0.096,0.068-0.184,0.076-0.265c0.007-0.081-0.001-0.152-0.028-0.216
		c-0.026-0.063-0.067-0.116-0.122-0.159c-0.074-0.058-0.157-0.088-0.249-0.091c-0.091-0.003-0.19,0.012-0.296,0.047
		c-0.107,0.036-0.223,0.085-0.348,0.15c-0.125,0.065-0.256,0.137-0.395,0.217c-0.354,0.202-0.678,0.305-0.971,0.311
		c-0.292,0.007-0.565-0.088-0.818-0.285c-0.198-0.154-0.337-0.327-0.418-0.518c-0.08-0.19-0.113-0.39-0.099-0.598
		c0.015-0.209,0.071-0.42,0.168-0.635c0.098-0.214,0.224-0.422,0.381-0.624c0.154-0.199,0.303-0.364,0.446-0.499
		c0.143-0.134,0.289-0.247,0.439-0.337l0.793,0.617c-0.094,0.029-0.187,0.068-0.279,0.118c-0.092,0.049-0.181,0.104-0.265,0.167
		c-0.084,0.062-0.162,0.129-0.234,0.199c-0.072,0.071-0.135,0.141-0.19,0.212c-0.076,0.097-0.136,0.192-0.179,0.287
		c-0.044,0.094-0.07,0.182-0.079,0.263c-0.009,0.082-0.002,0.155,0.021,0.222c0.024,0.066,0.065,0.123,0.124,0.167
		c0.064,0.05,0.134,0.078,0.21,0.083c0.077,0.006,0.162-0.004,0.255-0.031c0.093-0.027,0.196-0.068,0.308-0.123
		c0.112-0.055,0.235-0.119,0.368-0.195c0.182-0.103,0.356-0.186,0.521-0.252c0.167-0.065,0.329-0.106,0.486-0.123
		c0.158-0.016,0.313-0.001,0.464,0.042c0.152,0.043,0.304,0.126,0.458,0.246c0.212,0.164,0.359,0.344,0.44,0.537
		c0.082,0.193,0.113,0.393,0.095,0.601c-0.018,0.207-0.079,0.417-0.182,0.631c-0.104,0.213-0.235,0.422-0.394,0.625
		c-0.163,0.209-0.335,0.393-0.517,0.554C15.351,20.063,15.17,20.185,14.992,20.268z"/>
	<path fill="#1E4199" d="M18.42,16.606l-0.778,0.758l-3.364-3.456l0.779-0.758L18.42,16.606z"/>
	<path fill="#1E4199" d="M22.12,13.4c-0.23,0.492-0.632,0.938-1.205,1.339c-0.636,0.445-1.26,0.62-1.873,0.525
		c-0.612-0.096-1.134-0.452-1.566-1.069c-0.435-0.62-0.588-1.267-0.462-1.938c0.126-0.671,0.523-1.24,1.188-1.705
		c0.419-0.293,0.828-0.494,1.229-0.602l0.585,0.835c-0.429,0.037-0.864,0.209-1.304,0.518c-0.37,0.259-0.586,0.589-0.651,0.992
		c-0.064,0.402,0.043,0.803,0.323,1.204c0.285,0.406,0.609,0.647,0.973,0.724c0.363,0.076,0.722-0.009,1.077-0.258
		c0.213-0.148,0.361-0.297,0.443-0.445l-0.54-0.771l-0.791,0.553l-0.497-0.71l1.68-1.177L22.12,13.4z"/>
	<path fill="#1E4199" d="M26.938,11.745l-1.021,0.401l-2.958-2.094c-0.174-0.123-0.297-0.218-0.372-0.284l-0.012,0.005
		c0.079,0.151,0.182,0.391,0.31,0.716l0.969,2.467l-0.955,0.374l-1.763-4.489l1.089-0.427l2.854,2.033
		c0.13,0.091,0.253,0.184,0.37,0.278l0.012-0.005c-0.058-0.098-0.146-0.301-0.267-0.607L24.22,7.631l0.955-0.375L26.938,11.745z"/>
</g>
</svg>
