<?xml version="1.0" encoding="utf-8"?>
<!-- Generator: Adobe Illustrator 16.0.0, SVG Export Plug-In . SVG Version: 6.00 Build 0)  -->
<!DOCTYPE svg PUBLIC "-//W3C//DTD SVG 1.1//EN" "http://www.w3.org/Graphics/SVG/1.1/DTD/svg11.dtd">
<svg version="1.1" id="圖層_1" xmlns="http://www.w3.org/2000/svg" xmlns:xlink="http://www.w3.org/1999/xlink" x="0px" y="0px"
	 width="173.372px" height="208.318px" viewBox="0 0 173.372 208.318" enable-background="new 0 0 173.372 208.318"
	 xml:space="preserve">
<g id="Group_17" transform="translate(-1727.646 -817.027)">
	<g id="Group_10" transform="translate(1788.09 882.962)">
		<path id="Path_40" fill="none" stroke="#FFFFFF" stroke-width="3" stroke-linecap="round" d="M0,17.635
			c0,0,29.232-39.673,63.833,0"/>
		<path id="Path_41" fill="none" stroke="#FFFFFF" stroke-width="3" stroke-linecap="round" d="M0,17.633
			c0,0,29.232,39.673,63.833,0"/>
	</g>
	<g id="Group_13" transform="translate(1727.946 817.327)">
		<g id="Group_12" transform="translate(0 0)">
			<path id="Path_65" fill="#FFFFFF" stroke="#FFFFFF" stroke-width="0.6" d="M20.853,190.243c1.253,2.186,1.911,4.662,1.907,7.182
				c0.022,1.475-0.257,2.938-0.822,4.3c-0.521,1.229-1.301,2.332-2.285,3.234c-1.015,0.915-2.206,1.614-3.5,2.054
				c-1.44,0.488-2.954,0.728-4.474,0.707c-1.043,0.006-2.083-0.108-3.1-0.341c-0.971-0.221-1.912-0.56-2.8-1.011
				c-0.857-0.439-1.652-0.99-2.363-1.64c-0.711-0.647-1.325-1.394-1.823-2.217c-0.522-0.858-0.921-1.786-1.184-2.756
				c-0.284-1.056-0.423-2.145-0.414-3.238c-0.034-2.003,0.366-3.99,1.173-5.824h2.253c-1.037,1.854-1.577,3.946-1.568,6.071
				c-0.018,1.252,0.234,2.492,0.739,3.637c0.471,1.057,1.162,2.001,2.027,2.771c0.891,0.781,1.925,1.383,3.044,1.771
				c1.226,0.428,2.516,0.646,3.814,0.644c1.278,0.023,2.553-0.153,3.776-0.523c1.093-0.336,2.106-0.888,2.981-1.624
				c0.849-0.725,1.521-1.633,1.965-2.656c0.492-1.153,0.732-2.397,0.707-3.651c0.042-1.69-0.359-3.362-1.163-4.851h-6.711v5h-1.855
				v-7.038H20.853z"/>
			<path id="Path_66" fill="#FFFFFF" stroke="#FFFFFF" stroke-width="0.6" d="M22.762,175.89c0.021,1.475-0.275,2.937-0.87,4.285
				c-0.55,1.234-1.359,2.335-2.373,3.228c-1.033,0.908-2.234,1.604-3.536,2.048c-1.405,0.479-2.88,0.719-4.364,0.707
				c-1.601,0.018-3.194-0.221-4.72-0.707c-1.354-0.435-2.602-1.145-3.667-2.085c-1.031-0.926-1.844-2.069-2.379-3.348
				c-0.591-1.429-0.882-2.964-0.854-4.511c-0.024-1.44,0.262-2.87,0.838-4.19c0.534-1.209,1.324-2.286,2.316-3.159
				c1.025-0.89,2.214-1.571,3.5-2.006c1.42-0.476,2.909-0.712,4.406-0.7c1.573-0.014,3.139,0.218,4.641,0.686
				c1.357,0.417,2.618,1.099,3.709,2.006c1.048,0.899,1.887,2.017,2.457,3.274C22.485,172.825,22.79,174.352,22.762,175.89z
				 M1.853,175.722c-0.021,1.224,0.238,2.435,0.76,3.541c0.491,1.005,1.193,1.893,2.059,2.601c0.9,0.726,1.932,1.271,3.038,1.607
				c1.202,0.367,2.452,0.554,3.709,0.556c1.211,0.017,2.419-0.146,3.583-0.482c1.092-0.307,2.118-0.815,3.023-1.5
				c0.882-0.679,1.6-1.547,2.1-2.541c0.541-1.119,0.808-2.351,0.781-3.594c0.026-1.242-0.217-2.476-0.712-3.615
				c-0.455-1.006-1.132-1.895-1.98-2.6c-0.891-0.722-1.917-1.258-3.017-1.577c-1.241-0.36-2.527-0.538-3.819-0.529
				c-1.238-0.004-2.471,0.154-3.667,0.471c-1.097,0.285-2.127,0.782-3.033,1.463c-0.873,0.669-1.577,1.531-2.059,2.52
				C2.085,173.193,1.823,174.452,1.853,175.722z"/>
			<path id="Path_67" fill="#FFFFFF" stroke="#FFFFFF" stroke-width="0.6" d="M2.242,147.18h20.132v2.043H2.242v6.34H0.367v-14.737
				h1.875V147.18z"/>
			<path id="Path_68" fill="#FFFFFF" stroke="#FFFFFF" stroke-width="0.6" d="M22.762,129.965c0.021,1.473-0.276,2.933-0.87,4.28
				c-0.55,1.233-1.359,2.334-2.373,3.227c-1.032,0.91-2.234,1.606-3.536,2.052c-1.404,0.481-2.88,0.721-4.364,0.707
				c-1.601,0.021-3.195-0.219-4.72-0.707c-1.354-0.435-2.602-1.145-3.667-2.085c-1.032-0.925-1.844-2.067-2.379-3.346
				c-0.592-1.431-0.882-2.968-0.854-4.516c-0.024-1.441,0.262-2.87,0.838-4.191c0.533-1.21,1.324-2.289,2.316-3.163
				c1.025-0.89,2.214-1.57,3.5-2.006c1.42-0.475,2.909-0.711,4.406-0.7c1.573-0.014,3.139,0.218,4.641,0.687
				c1.357,0.417,2.618,1.099,3.709,2.006c1.048,0.898,1.887,2.017,2.457,3.274C22.486,126.895,22.792,128.424,22.762,129.965z
				 M1.853,129.792c-0.022,1.223,0.238,2.435,0.76,3.541c0.491,1.005,1.193,1.892,2.059,2.6c0.9,0.727,1.932,1.272,3.038,1.608
				c1.202,0.366,2.452,0.554,3.709,0.555c1.211,0.018,2.419-0.146,3.583-0.481c1.092-0.308,2.118-0.815,3.023-1.5
				c0.882-0.679,1.6-1.547,2.1-2.541c0.541-1.119,0.809-2.352,0.781-3.594c0.026-1.243-0.217-2.476-0.712-3.615
				c-0.455-1.006-1.132-1.895-1.98-2.601c-0.892-0.719-1.917-1.255-3.017-1.576c-1.241-0.358-2.527-0.535-3.819-0.524
				c-1.238-0.006-2.471,0.15-3.667,0.466c-1.097,0.285-2.127,0.781-3.033,1.462c-0.873,0.669-1.577,1.532-2.059,2.521
				C2.085,127.263,1.823,128.522,1.853,129.792z"/>
			<path id="Path_69" fill="#FFFFFF" stroke="#FFFFFF" stroke-width="0.6" d="M19.153,107.648c0.284-0.384,0.533-0.793,0.744-1.222
				c0.218-0.441,0.404-0.898,0.556-1.367c0.146-0.457,0.258-0.925,0.335-1.399c0.076-0.447,0.114-0.899,0.115-1.353
				c0.098-1.32-0.241-2.637-0.964-3.745c-0.669-0.841-1.705-1.304-2.777-1.243c-0.524-0.013-1.046,0.085-1.53,0.288
				c-0.462,0.216-0.877,0.522-1.221,0.899c-0.427,0.478-0.805,0.997-1.126,1.551c-0.377,0.623-0.8,1.362-1.268,2.212
				c-0.513,0.942-0.997,1.749-1.451,2.42c-0.398,0.602-0.868,1.152-1.4,1.64c-0.449,0.409-0.974,0.728-1.545,0.938
				c-0.607,0.207-1.245,0.309-1.886,0.301c-0.833,0.014-1.657-0.183-2.394-0.571c-0.703-0.377-1.317-0.9-1.8-1.535
				c-0.512-0.681-0.898-1.447-1.142-2.263c-0.272-0.898-0.407-1.833-0.4-2.771c-0.043-1.48,0.203-2.956,0.723-4.343H2.98
				c-0.775,1.397-1.165,2.977-1.127,4.575c-0.002,0.624,0.079,1.246,0.241,1.849c0.144,0.543,0.381,1.057,0.7,1.52
				c0.297,0.425,0.688,0.776,1.142,1.026c0.49,0.261,1.039,0.391,1.593,0.377c0.504,0.013,1.005-0.073,1.477-0.251
				c0.443-0.186,0.843-0.462,1.173-0.812c0.426-0.444,0.795-0.938,1.1-1.472c0.361-0.608,0.781-1.357,1.252-2.237
				c0.435-0.828,0.914-1.633,1.435-2.41c0.416-0.625,0.905-1.198,1.456-1.708c0.472-0.434,1.019-0.777,1.614-1.016
				c0.606-0.234,1.251-0.35,1.9-0.342c0.877-0.016,1.747,0.169,2.541,0.54c0.718,0.348,1.341,0.861,1.818,1.5
				c0.503,0.691,0.871,1.473,1.084,2.301c0.255,0.956,0.38,1.943,0.372,2.934c-0.006,0.415-0.034,0.83-0.084,1.242
				c-0.058,0.481-0.141,0.969-0.246,1.462c-0.104,0.474-0.234,0.94-0.388,1.4c-0.117,0.379-0.278,0.743-0.482,1.084L19.153,107.648z
				"/>
			<path id="Path_70" fill="#FFFFFF" stroke="#FFFFFF" stroke-width="0.6" d="M22.144,91.181L0.168,90.013L0.739,79.3l1.87,0.101
				l-0.461,8.67l8.062,0.43l0.424-8.031l1.839,0.101l-0.424,8.03l8.351,0.445l0.487-9.163l1.854,0.101L22.144,91.181z"/>
			<path id="Path_71" fill="#FFFFFF" stroke="#FFFFFF" stroke-width="0.6" d="M23.209,76.59L1.678,72.027l2.221-10.493l1.834,0.388
				l-1.8,8.5l7.9,1.671l1.666-7.869l1.8,0.389l-1.671,7.862l8.181,1.737l1.907-8.983l1.813,0.388L23.209,76.59z"/>
			<path id="Path_72" fill="#FFFFFF" stroke="#FFFFFF" stroke-width="0.6" d="M37.231,42.243c-0.215,2.509-1.082,4.919-2.514,6.99
				c-0.813,1.228-1.873,2.273-3.112,3.069c-1.128,0.722-2.399,1.19-3.725,1.373c-1.354,0.175-2.73,0.072-4.044-0.3
				c-1.461-0.419-2.843-1.079-4.086-1.954c-0.858-0.591-1.647-1.275-2.353-2.042c-0.67-0.734-1.25-1.547-1.724-2.42
				c-0.457-0.847-0.799-1.75-1.016-2.687c-0.216-0.939-0.299-1.904-0.246-2.866c0.057-1.001,0.254-1.988,0.586-2.935
				c0.365-1.03,0.87-2.006,1.5-2.899c1.108-1.672,2.565-3.084,4.27-4.14l1.86,1.278c-1.907,0.941-3.54,2.357-4.741,4.112
				c-0.726,1.021-1.223,2.188-1.458,3.419c-0.216,1.137-0.184,2.308,0.094,3.431c0.29,1.148,0.799,2.23,1.5,3.186
				c0.764,1.052,1.704,1.965,2.777,2.699c1.038,0.744,2.187,1.317,3.405,1.7c1.088,0.349,2.236,0.474,3.374,0.367
				c1.109-0.119,2.175-0.489,3.119-1.083c1.062-0.666,1.967-1.553,2.656-2.6c0.996-1.367,1.614-2.972,1.792-4.652l-5.516-3.809
				L26.784,43.6l-1.53-1.053l4-5.8L37.231,42.243z"/>
			<path id="Path_73" fill="#FFFFFF" stroke="#FFFFFF" stroke-width="0.6" d="M50.695,32.888l-6.543-2.817
				c-0.56-0.245-1.136-0.451-1.724-0.618c-0.448-0.126-0.913-0.186-1.378-0.178c-0.396,0.009-0.787,0.091-1.153,0.24
				c-0.388,0.17-0.75,0.394-1.074,0.665l-1.886,1.524l6.03,7.444l-1.593,1.282L27.527,23.322l4.93-3.987
				c0.634-0.512,1.342-0.926,2.1-1.226c0.728-0.293,1.504-0.445,2.289-0.451c0.782-0.004,1.555,0.167,2.263,0.5
				c0.791,0.372,1.482,0.927,2.018,1.618c0.465,0.566,0.83,1.209,1.079,1.899c0.228,0.639,0.334,1.313,0.314,1.991
				c-0.023,0.683-0.163,1.355-0.414,1.991c-0.281,0.698-0.665,1.352-1.137,1.938l0.042,0.042c0.303-0.088,0.617-0.135,0.933-0.141
				c0.336-0.004,0.671,0.029,1,0.1c0.384,0.072,0.763,0.172,1.132,0.301c0.4,0.141,0.838,0.309,1.32,0.513l7.161,2.965
				L50.695,32.888z M30.295,23.495l5.474,6.763l2.839-2.3c0.54-0.427,1.004-0.942,1.373-1.524c0.326-0.518,0.545-1.096,0.644-1.699
				c0.086-0.589,0.045-1.188-0.12-1.761c-0.185-0.623-0.498-1.202-0.917-1.699c-0.67-0.928-1.72-1.505-2.861-1.575
				c-1.286,0.021-2.52,0.518-3.463,1.393L30.295,23.495z"/>
			<path id="Path_74" fill="#FFFFFF" stroke="#FFFFFF" stroke-width="0.6" d="M62.875,27.204c-1.36,0.567-2.828,0.83-4.3,0.77
				c-1.35-0.057-2.672-0.402-3.878-1.013c-1.22-0.633-2.307-1.496-3.2-2.541c-0.965-1.127-1.732-2.409-2.268-3.793
				c-0.608-1.482-0.972-3.053-1.079-4.652c-0.094-1.417,0.106-2.838,0.587-4.175c0.48-1.297,1.242-2.471,2.23-3.438
				c1.11-1.078,2.432-1.915,3.882-2.457c1.33-0.552,2.762-0.813,4.2-0.766c1.321,0.052,2.615,0.39,3.793,0.99
				c1.209,0.621,2.281,1.479,3.154,2.521c0.966,1.145,1.734,2.442,2.274,3.84c0.594,1.459,0.957,3.001,1.075,4.572
				c0.116,1.414-0.055,2.838-0.5,4.186c-0.443,1.307-1.171,2.498-2.132,3.489C65.627,25.826,64.318,26.668,62.875,27.204z
				 M55.331,7.711c-1.146,0.427-2.175,1.116-3.007,2.012c-0.756,0.823-1.323,1.801-1.661,2.866c-0.344,1.105-0.47,2.268-0.372,3.421
				c0.099,1.251,0.383,2.479,0.843,3.646c0.434,1.134,1.03,2.197,1.771,3.159c0.691,0.9,1.544,1.665,2.515,2.253
				c0.953,0.572,2.025,0.92,3.133,1.016c1.239,0.091,2.481-0.114,3.625-0.6c1.168-0.43,2.228-1.112,3.1-2
				c0.772-0.791,1.352-1.749,1.692-2.801c0.34-1.092,0.459-2.24,0.351-3.379c-0.124-1.286-0.435-2.548-0.924-3.743
				c-0.45-1.154-1.05-2.243-1.786-3.238c-0.668-0.914-1.508-1.688-2.473-2.279c-0.944-0.566-2.009-0.902-3.107-0.979
				C57.764,6.988,56.497,7.21,55.331,7.711z"/>
			<path id="Path_75" fill="#FFFFFF" stroke="#FFFFFF" stroke-width="0.6" d="M84.5,22.767c-1.472,0.063-2.939-0.196-4.3-0.76
				c-1.246-0.521-2.367-1.299-3.29-2.284c-0.928-1.013-1.652-2.196-2.132-3.483c-0.519-1.393-0.796-2.862-0.822-4.349
				c-0.062-1.602,0.139-3.203,0.592-4.74c0.401-1.362,1.076-2.628,1.985-3.72c0.902-1.05,2.023-1.891,3.285-2.462
				c1.415-0.626,2.943-0.954,4.49-0.964c1.438-0.063,2.873,0.186,4.207,0.729c1.221,0.505,2.32,1.266,3.223,2.231
				c0.916,1.005,1.627,2.18,2.09,3.458c0.514,1.408,0.788,2.892,0.812,4.391c0.054,1.57-0.138,3.14-0.565,4.651
				c-0.384,1.367-1.033,2.646-1.912,3.761c-0.869,1.071-1.965,1.938-3.207,2.536C87.56,22.415,86.04,22.758,84.5,22.767z
				 M84.139,1.867c-1.223,0.004-2.427,0.296-3.515,0.854c-0.994,0.513-1.864,1.234-2.551,2.116c-0.703,0.919-1.22,1.965-1.524,3.08
				c-0.341,1.209-0.499,2.463-0.466,3.719c0.013,1.212,0.207,2.414,0.576,3.568c0.334,1.085,0.87,2.098,1.577,2.986
				c0.699,0.861,1.585,1.553,2.592,2.021c1.132,0.517,2.372,0.754,3.615,0.692c1.242-0.005,2.467-0.278,3.593-0.8
				c0.994-0.479,1.866-1.18,2.549-2.047c0.697-0.908,1.207-1.946,1.5-3.054c0.332-1.25,0.479-2.542,0.435-3.835
				c-0.028-1.236-0.218-2.464-0.565-3.651c-0.309-1.091-0.83-2.11-1.535-3c-0.689-0.855-1.57-1.537-2.572-1.99
				c-1.169-0.502-2.438-0.729-3.708-0.661V1.867z"/>
			<path id="Path_76" fill="#FFFFFF" stroke="#FFFFFF" stroke-width="0.6" d="M105.259,25.25l-1.917-0.566l-1.371-23.385l2.2,0.655
				l0.927,18.639c0.017,0.347,0.017,0.692,0,1.032c-0.011,0.353-0.042,0.704-0.094,1.053l0.058,0.021
				c0.131-0.262,0.288-0.54,0.477-0.843c0.189-0.304,0.41-0.623,0.656-0.97L117.447,5.93l2.112,0.633L105.259,25.25z"/>
			<path id="Path_77" fill="#FFFFFF" stroke="#FFFFFF" stroke-width="0.6" d="M125.111,25.543l-4.379,6.983l-1.729-1.084
				l4.358-6.941l1.488-15.376l1.965,1.236l-1.199,11.384c-0.017,0.136-0.043,0.335-0.09,0.6c-0.047,0.266-0.1,0.587-0.183,0.985
				l0.042,0.026c0.18-0.146,0.367-0.283,0.561-0.409c0.226-0.147,0.492-0.31,0.791-0.482l9.934-5.925l1.844,1.158L125.111,25.543z"
				/>
			<path id="Path_78" fill="#FFFFFF" stroke="#FFFFFF" stroke-width="0.6" d="M151.676,33.648l-6.622,4.986l4.841,6.423
				l-1.483,1.116l-4.844-6.423l-7.979,6.009l-1.222-1.625l17.576-13.243l6.455,8.565l-1.494,1.127L151.676,33.648z"/>
			<path id="Path_79" fill="#FFFFFF" stroke="#FFFFFF" stroke-width="0.6" d="M143.372,56.389l-0.938-1.813l19.547-10.11
				l0.942,1.813L143.372,56.389z"/>
			<path id="Path_80" fill="#FFFFFF" stroke="#FFFFFF" stroke-width="0.6" d="M149.758,75.531l12.731-17.3
				c0.162-0.221,0.33-0.436,0.508-0.655c0.16-0.203,0.339-0.391,0.533-0.562l-0.024-0.084c-0.162,0.084-0.399,0.184-0.707,0.301
				c-0.308,0.116-0.687,0.262-1.153,0.419l-16.125,5.548l-0.664-1.929l20.813-7.153l0.732,2.137L153.809,73.29
				c-0.2,0.262-0.394,0.5-0.571,0.723c-0.178,0.224-0.346,0.419-0.5,0.601l0.026,0.079c0.3-0.147,0.649-0.301,1.043-0.461
				c0.394-0.161,0.828-0.31,1.31-0.482l15.473-5.318l0.669,1.941l-20.812,7.159L149.758,75.531z"/>
			<path id="Path_81" fill="#FFFFFF" stroke="#FFFFFF" stroke-width="0.6" d="M149.209,82.141l21.688-3.751l1.828,10.566
				l-1.844,0.32l-1.482-8.561l-7.959,1.378l1.373,7.921l-1.813,0.314l-1.373-7.926l-8.24,1.43l1.561,9.042l-1.828,0.32
				L149.209,82.141z"/>
			<path id="Path_82" fill="#FFFFFF" stroke="#FFFFFF" stroke-width="0.6" d="M150.068,125.465v-2.132l16.319-4.71
				c0.368-0.11,0.743-0.2,1.121-0.267c0.343-0.07,0.692-0.11,1.043-0.12v-0.059c-0.726-0.067-1.44-0.216-2.132-0.444l-16.35-4.883
				v-2.133l22.012-6.49v2.268l-17.268,4.851c-0.382,0.11-0.738,0.2-1.084,0.268c-0.345,0.066-0.671,0.12-0.99,0.162v0.063
				c0.703,0.116,1.396,0.283,2.076,0.5l17.266,5.16v1.608l-17.329,4.835c-0.347,0.094-0.687,0.173-1.022,0.246
				c-0.321,0.072-0.646,0.129-0.974,0.168v0.063c0.233,0.026,0.464,0.066,0.692,0.12c0.256,0.063,0.539,0.136,0.858,0.215
				l17.774,4.82v2.226L150.068,125.465z"/>
			<path id="Path_83" fill="#FFFFFF" stroke="#FFFFFF" stroke-width="0.6" d="M149.686,143.709c-0.024-1.475,0.272-2.937,0.87-4.285
				c0.55-1.232,1.357-2.332,2.368-3.227c1.036-0.906,2.239-1.601,3.542-2.043c1.404-0.481,2.879-0.723,4.363-0.712
				c1.602-0.017,3.195,0.224,4.721,0.712c1.353,0.434,2.601,1.142,3.667,2.08c1.03,0.926,1.843,2.069,2.378,3.348
				c0.592,1.429,0.883,2.965,0.854,4.511c0.024,1.441-0.262,2.87-0.838,4.191c-0.535,1.207-1.325,2.285-2.315,3.159
				c-1.028,0.89-2.222,1.571-3.511,2.006c-1.418,0.475-2.904,0.711-4.399,0.7c-1.576,0.01-3.144-0.225-4.647-0.695
				c-1.354-0.418-2.611-1.101-3.701-2.006c-1.049-0.897-1.889-2.016-2.457-3.274C149.963,146.768,149.657,145.244,149.686,143.709z
				 M170.586,143.877c0.024-1.222-0.235-2.433-0.761-3.536c-0.487-1.005-1.188-1.893-2.053-2.6c-0.9-0.725-1.933-1.268-3.039-1.601
				c-1.201-0.37-2.451-0.56-3.709-0.561c-1.211-0.018-2.42,0.146-3.582,0.487c-1.094,0.303-2.121,0.813-3.023,1.5
				c-0.883,0.678-1.6,1.547-2.1,2.541c-0.545,1.118-0.813,2.351-0.781,3.594c-0.027,1.242,0.217,2.476,0.712,3.615
				c0.454,1.005,1.132,1.895,1.979,2.6c0.895,0.718,1.924,1.251,3.026,1.566c1.241,0.359,2.526,0.538,3.819,0.528
				c1.236,0.003,2.469-0.153,3.666-0.466c1.096-0.287,2.127-0.783,3.033-1.462c0.873-0.67,1.576-1.534,2.055-2.525
				c0.534-1.151,0.795-2.412,0.759-3.682H170.586z"/>
			<path id="Path_84" fill="#FFFFFF" stroke="#FFFFFF" stroke-width="0.6" d="M150.068,170.095l6.313-3.315
				c0.543-0.279,1.064-0.598,1.562-0.953c0.378-0.267,0.717-0.586,1.006-0.948c0.242-0.314,0.426-0.672,0.539-1.053
				c0.111-0.408,0.166-0.829,0.162-1.252v-2.426h-9.582v-2.038h22.014v6.339c0,0.814-0.125,1.624-0.372,2.399
				c-0.235,0.747-0.604,1.445-1.091,2.06c-0.49,0.608-1.106,1.104-1.807,1.451c-0.791,0.378-1.66,0.565-2.537,0.549
				c-0.73,0.006-1.457-0.113-2.147-0.352c-0.638-0.228-1.229-0.57-1.744-1.011c-0.515-0.449-0.95-0.982-1.288-1.577
				c-0.364-0.657-0.629-1.365-0.786-2.1h-0.063c-0.119,0.292-0.277,0.565-0.471,0.814c-0.208,0.263-0.445,0.502-0.707,0.713
				c-0.299,0.25-0.616,0.479-0.947,0.686c-0.361,0.225-0.771,0.461-1.231,0.707l-6.815,3.7L150.068,170.095z M170.206,160.147h-8.7
				v3.65c-0.007,0.689,0.103,1.375,0.325,2.027c0.195,0.581,0.507,1.116,0.916,1.572c0.404,0.436,0.898,0.78,1.447,1.011
				c0.602,0.251,1.248,0.376,1.899,0.367c1.14,0.057,2.245-0.396,3.017-1.236c0.792-1.014,1.182-2.284,1.096-3.568V160.147z"/>
			<path id="Path_85" fill="#FFFFFF" stroke="#FFFFFF" stroke-width="0.6" d="M150.068,188.199l10.301-8.948
				c0.199-0.172,0.41-0.331,0.629-0.477v-0.059h-10.93v-2.042h22.014v2.043h-10.362v0.059c0.115,0.072,0.22,0.151,0.325,0.229
				l0.32,0.262l9.717,8.565v2.591l-10.625-9.542l-11.389,10.173V188.199z"/>
			<path id="Path_86" fill="#FFFFFF" stroke="#FFFFFF" stroke-width="0.6" d="M153.295,193.606
				c-0.284,0.384-0.532,0.792-0.744,1.221c-0.22,0.442-0.405,0.901-0.556,1.373c-0.147,0.457-0.26,0.925-0.334,1.399
				c-0.076,0.447-0.114,0.899-0.115,1.353c-0.098,1.32,0.241,2.637,0.964,3.746c0.671,0.841,1.708,1.304,2.782,1.242
				c0.523,0.011,1.042-0.09,1.523-0.293c0.465-0.214,0.88-0.521,1.221-0.9c0.427-0.479,0.805-0.998,1.127-1.551
				c0.377-0.629,0.8-1.362,1.268-2.211c0.441-0.83,0.925-1.638,1.447-2.419c0.396-0.604,0.867-1.156,1.4-1.644
				c0.447-0.409,0.973-0.726,1.545-0.932c0.605-0.209,1.244-0.311,1.886-0.3c0.833-0.014,1.655,0.181,2.394,0.565
				c0.703,0.377,1.316,0.9,1.801,1.535c0.516,0.681,0.904,1.449,1.146,2.268c0.271,0.897,0.406,1.829,0.4,2.767
				c0.043,1.48-0.203,2.956-0.724,4.343h-2.255c0.771-1.401,1.155-2.981,1.116-4.58c0.005-0.622-0.075-1.242-0.236-1.844
				c-0.142-0.544-0.379-1.058-0.7-1.52c-0.293-0.429-0.686-0.78-1.144-1.026c-0.486-0.264-1.034-0.396-1.587-0.382
				c-0.506-0.01-1.01,0.077-1.482,0.257c-0.443,0.187-0.843,0.463-1.174,0.812c-0.424,0.445-0.792,0.941-1.095,1.478
				c-0.361,0.6-0.778,1.342-1.252,2.226c-0.438,0.828-0.918,1.633-1.44,2.41c-0.414,0.628-0.902,1.203-1.455,1.713
				c-0.475,0.433-1.021,0.779-1.615,1.022c-0.605,0.231-1.25,0.345-1.899,0.335c-0.875,0.019-1.743-0.164-2.536-0.534
				c-0.719-0.348-1.344-0.861-1.822-1.5c-0.5-0.697-0.867-1.481-1.082-2.313c-0.251-0.955-0.374-1.939-0.367-2.928
				c0.004-0.417,0.032-0.833,0.084-1.247c0.059-0.477,0.142-0.964,0.246-1.456c0.104-0.473,0.231-0.939,0.383-1.399
				c0.117-0.38,0.281-0.744,0.486-1.084L153.295,193.606z"/>
		</g>
	</g>
</g>
</svg>
