<?xml version="1.0" encoding="utf-8"?>
<!-- Generator: Adobe Illustrator 16.0.0, SVG Export Plug-In . SVG Version: 6.00 Build 0)  -->
<!DOCTYPE svg PUBLIC "-//W3C//DTD SVG 1.1//EN" "http://www.w3.org/Graphics/SVG/1.1/DTD/svg11.dtd">
<svg version="1.1" id="圖層_1" xmlns="http://www.w3.org/2000/svg" xmlns:xlink="http://www.w3.org/1999/xlink" x="0px" y="0px"
	 width="233.526px" height="110.541px" viewBox="-58.544 61.493 233.526 110.541"
	 enable-background="new -58.544 61.493 233.526 110.541" xml:space="preserve">
<g id="Group_63" transform="translate(-1569.256 -1227)">
	<path id="Icon_awesome-barcode" fill="#FFFFFF" d="M1510.712,1399.032v-88.975h8.21v88.975H1510.712z M1522.962,1398.97v-88.913
		h4.17v88.913H1522.962z M1535.342,1398.97v-88.913h4.04v88.913H1535.342z M1555.801,1398.97v-88.913h4.04v88.913H1555.801z
		 M1572.221,1398.97v-88.913h8.079v88.913H1572.221z M1592.68,1398.97v-88.913h4.04v88.913H1592.68z M1600.89,1398.97v-88.913h4.04
		v88.913H1600.89z M1609.1,1398.971v-88.914h4.04v88.913L1609.1,1398.971z M1625.39,1398.971v-88.914h8.209v88.913L1625.39,1398.971
		z M1645.849,1398.971v-88.914h8.211v88.913L1645.849,1398.971z M1662.269,1398.971v-88.914h8.209v88.913L1662.269,1398.971z
		 M1678.689,1398.971v-88.914h8.209v88.913L1678.689,1398.971z M1690.939,1398.971v-88.914h8.209v88.913L1690.939,1398.971z
		 M1711.529,1398.971v-88.914h12.25v88.913L1711.529,1398.971z M1727.818,1398.971v-88.914h4.17v88.913L1727.818,1398.971z
		 M1736.027,1399.033v-88.976h8.211v88.976H1736.027z"/>
	<g enable-background="new    ">
		<path fill="#F5F5F5" d="M1591.839,1294.954c0,0.762-0.069,1.438-0.206,2.025c-0.138,0.588-0.337,1.084-0.597,1.488
			c-0.261,0.404-0.58,0.711-0.959,0.921c-0.378,0.209-0.809,0.313-1.292,0.313c-0.457,0-0.864-0.1-1.222-0.301
			c-0.357-0.201-0.659-0.494-0.904-0.879c-0.246-0.386-0.432-0.858-0.559-1.419s-0.19-1.203-0.19-1.927
			c0-0.796,0.066-1.498,0.2-2.107c0.133-0.609,0.329-1.12,0.587-1.533c0.258-0.412,0.579-0.724,0.962-0.933
			c0.383-0.21,0.822-0.314,1.317-0.314C1590.885,1290.289,1591.839,1291.844,1591.839,1294.954z M1590.772,1295.055
			c0-2.59-0.616-3.885-1.847-3.885c-1.299,0-1.949,1.318-1.949,3.955c0,2.459,0.637,3.688,1.911,3.688
			C1590.144,1298.813,1590.772,1297.561,1590.772,1295.055z"/>
		<path fill="#F5F5F5" d="M1598.572,1292.828c0-0.279-0.043-0.522-0.13-0.729c-0.087-0.208-0.206-0.38-0.355-0.518
			c-0.15-0.138-0.327-0.24-0.53-0.309c-0.203-0.067-0.423-0.102-0.66-0.102c-0.203,0-0.402,0.028-0.597,0.083
			s-0.384,0.131-0.568,0.229c-0.184,0.098-0.361,0.214-0.533,0.349c-0.171,0.136-0.331,0.286-0.479,0.451v-1.117
			c0.292-0.283,0.619-0.5,0.981-0.65c0.361-0.15,0.803-0.226,1.323-0.226c0.373,0,0.717,0.054,1.035,0.162
			c0.317,0.107,0.592,0.266,0.825,0.473s0.416,0.464,0.549,0.769c0.133,0.305,0.2,0.653,0.2,1.047c0,0.359-0.042,0.686-0.124,0.978
			c-0.083,0.292-0.208,0.567-0.375,0.825c-0.167,0.258-0.377,0.506-0.631,0.742c-0.254,0.237-0.552,0.479-0.895,0.725
			c-0.427,0.305-0.78,0.564-1.057,0.78c-0.277,0.216-0.498,0.418-0.66,0.606c-0.163,0.188-0.277,0.376-0.343,0.564
			c-0.066,0.188-0.099,0.405-0.099,0.65h4.532v0.934h-5.618v-0.451c0-0.389,0.042-0.731,0.127-1.027
			c0.084-0.297,0.224-0.578,0.419-0.845s0.45-0.533,0.765-0.8c0.315-0.267,0.701-0.567,1.158-0.901
			c0.33-0.237,0.606-0.464,0.828-0.679c0.223-0.217,0.401-0.432,0.537-0.648c0.135-0.215,0.232-0.435,0.289-0.656
			C1598.544,1293.313,1598.572,1293.078,1598.572,1292.828z"/>
		<path fill="#F5F5F5" d="M1611.741,1292.828c0-0.279-0.043-0.522-0.13-0.729c-0.087-0.208-0.206-0.38-0.355-0.518
			c-0.15-0.138-0.327-0.24-0.53-0.309c-0.203-0.067-0.423-0.102-0.66-0.102c-0.203,0-0.402,0.028-0.597,0.083
			s-0.384,0.131-0.568,0.229c-0.184,0.098-0.361,0.214-0.533,0.349c-0.171,0.136-0.331,0.286-0.479,0.451v-1.117
			c0.292-0.283,0.619-0.5,0.981-0.65c0.361-0.15,0.803-0.226,1.323-0.226c0.373,0,0.717,0.054,1.035,0.162
			c0.317,0.107,0.592,0.266,0.825,0.473s0.416,0.464,0.549,0.769c0.133,0.305,0.2,0.653,0.2,1.047c0,0.359-0.042,0.686-0.124,0.978
			c-0.083,0.292-0.208,0.567-0.375,0.825c-0.167,0.258-0.377,0.506-0.631,0.742c-0.254,0.237-0.552,0.479-0.895,0.725
			c-0.427,0.305-0.78,0.564-1.057,0.78c-0.277,0.216-0.498,0.418-0.66,0.606c-0.163,0.188-0.277,0.376-0.343,0.564
			c-0.066,0.188-0.099,0.405-0.099,0.65h4.532v0.934h-5.618v-0.451c0-0.389,0.042-0.731,0.127-1.027
			c0.084-0.297,0.224-0.578,0.419-0.845s0.45-0.533,0.765-0.8c0.315-0.267,0.701-0.567,1.158-0.901
			c0.33-0.237,0.606-0.464,0.828-0.679c0.223-0.217,0.401-0.432,0.537-0.648c0.135-0.215,0.232-0.435,0.289-0.656
			C1611.713,1293.313,1611.741,1293.078,1611.741,1292.828z"/>
		<path fill="#F5F5F5" d="M1621.522,1294.446c0,0.834-0.083,1.576-0.248,2.226s-0.406,1.199-0.724,1.65
			c-0.317,0.45-0.705,0.793-1.162,1.028c-0.457,0.234-0.978,0.352-1.562,0.352c-0.601,0-1.13-0.105-1.587-0.316v-0.997
			c0.503,0.283,1.041,0.425,1.612,0.425c0.411,0,0.777-0.084,1.102-0.254c0.323-0.169,0.598-0.415,0.822-0.739
			c0.224-0.323,0.396-0.723,0.514-1.196s0.178-1.018,0.178-1.631h-0.025c-0.389,0.782-1.066,1.174-2.031,1.174
			c-0.389,0-0.747-0.068-1.073-0.206s-0.607-0.332-0.844-0.584s-0.421-0.552-0.552-0.898s-0.197-0.729-0.197-1.149
			c0-0.448,0.073-0.858,0.219-1.23c0.146-0.373,0.35-0.693,0.609-0.962c0.261-0.269,0.569-0.478,0.927-0.626
			c0.358-0.147,0.748-0.222,1.171-0.222c0.457,0,0.862,0.092,1.215,0.276c0.354,0.184,0.651,0.452,0.892,0.806
			s0.425,0.788,0.552,1.305S1621.522,1293.782,1621.522,1294.446z M1620.398,1293.513c0-0.352-0.045-0.671-0.136-0.958
			c-0.091-0.288-0.217-0.535-0.378-0.74s-0.353-0.363-0.574-0.476c-0.223-0.112-0.465-0.169-0.727-0.169
			c-0.25,0-0.482,0.05-0.698,0.149s-0.403,0.239-0.562,0.419c-0.158,0.18-0.283,0.394-0.374,0.642
			c-0.091,0.247-0.137,0.517-0.137,0.81c0,0.321,0.043,0.609,0.13,0.863c0.087,0.254,0.211,0.468,0.372,0.644
			s0.354,0.311,0.581,0.403c0.227,0.093,0.478,0.14,0.752,0.14c0.241,0,0.469-0.046,0.682-0.137c0.214-0.091,0.4-0.214,0.559-0.368
			c0.159-0.154,0.284-0.336,0.375-0.546C1620.353,1293.98,1620.398,1293.755,1620.398,1293.513z"/>
		<path fill="#F5F5F5" d="M1629.607,1296.763c0,0.444-0.076,0.847-0.229,1.206s-0.369,0.669-0.65,0.927s-0.621,0.457-1.02,0.597
			c-0.397,0.14-0.84,0.209-1.326,0.209c-0.846,0-1.475-0.127-1.885-0.381v-1.104c0.618,0.397,1.25,0.596,1.898,0.596
			c0.33,0,0.628-0.048,0.892-0.146c0.265-0.098,0.49-0.232,0.676-0.406c0.187-0.174,0.33-0.383,0.43-0.628
			c0.099-0.246,0.148-0.515,0.148-0.807c0-0.593-0.199-1.057-0.597-1.394c-0.397-0.336-0.976-0.505-1.733-0.505
			c-0.123,0-0.252,0.003-0.387,0.007s-0.271,0.01-0.406,0.016c-0.135,0.007-0.268,0.014-0.397,0.022
			c-0.129,0.009-0.246,0.02-0.352,0.031l0.311-4.563h4.208v0.939h-3.307l-0.184,2.673c0.135-0.009,0.279-0.017,0.432-0.022
			c0.152-0.007,0.288-0.01,0.406-0.01c0.482,0,0.914,0.063,1.295,0.19s0.703,0.308,0.969,0.543c0.264,0.234,0.465,0.522,0.602,0.863
			C1629.539,1295.959,1629.607,1296.341,1629.607,1296.763z"/>
		<path fill="#F5F5F5" d="M1636.359,1299.544h-1.041v-7.865c-0.08,0.081-0.197,0.173-0.352,0.276s-0.328,0.206-0.521,0.308
			c-0.191,0.102-0.395,0.197-0.609,0.286c-0.213,0.089-0.422,0.159-0.625,0.21v-1.055c0.229-0.063,0.471-0.148,0.727-0.257
			c0.257-0.107,0.508-0.229,0.756-0.361c0.248-0.134,0.481-0.273,0.701-0.419c0.221-0.146,0.411-0.289,0.572-0.429h0.393V1299.544z"
			/>
		<path fill="#F5F5F5" d="M1651.408,1294.954c0,0.762-0.069,1.438-0.207,2.025c-0.137,0.588-0.336,1.084-0.596,1.488
			c-0.262,0.404-0.58,0.711-0.959,0.921c-0.379,0.209-0.81,0.313-1.292,0.313c-0.457,0-0.864-0.1-1.222-0.301
			s-0.659-0.494-0.904-0.879c-0.246-0.386-0.432-0.858-0.559-1.419s-0.191-1.203-0.191-1.927c0-0.796,0.066-1.498,0.201-2.107
			c0.133-0.609,0.328-1.12,0.586-1.533c0.259-0.412,0.579-0.724,0.963-0.933c0.383-0.21,0.821-0.314,1.316-0.314
			C1650.453,1290.289,1651.408,1291.844,1651.408,1294.954z M1650.342,1295.055c0-2.59-0.616-3.885-1.848-3.885
			c-1.299,0-1.949,1.318-1.949,3.955c0,2.459,0.637,3.688,1.911,3.688C1649.713,1298.813,1650.342,1297.561,1650.342,1295.055z"/>
		<path fill="#F5F5F5" d="M1659.392,1296.763c0,0.444-0.076,0.847-0.229,1.206s-0.369,0.669-0.651,0.927
			c-0.281,0.258-0.62,0.457-1.019,0.597s-0.84,0.209-1.326,0.209c-0.847,0-1.475-0.127-1.886-0.381v-1.104
			c0.618,0.397,1.251,0.596,1.897,0.596c0.33,0,0.628-0.048,0.893-0.146c0.264-0.098,0.49-0.232,0.676-0.406
			s0.329-0.383,0.429-0.628c0.099-0.246,0.149-0.515,0.149-0.807c0-0.593-0.199-1.057-0.598-1.394
			c-0.397-0.336-0.975-0.505-1.732-0.505c-0.123,0-0.252,0.003-0.387,0.007c-0.136,0.004-0.271,0.01-0.406,0.016
			c-0.136,0.007-0.268,0.014-0.397,0.022c-0.129,0.009-0.246,0.02-0.353,0.031l0.312-4.563h4.208v0.939h-3.307l-0.184,2.673
			c0.135-0.009,0.279-0.017,0.432-0.022c0.152-0.007,0.287-0.01,0.406-0.01c0.482,0,0.914,0.063,1.295,0.19s0.703,0.308,0.968,0.543
			c0.265,0.234,0.466,0.522,0.603,0.863C1659.323,1295.959,1659.392,1296.341,1659.392,1296.763z"/>
		<path fill="#F5F5F5" d="M1667.922,1294.446c0,0.834-0.082,1.576-0.248,2.226c-0.164,0.649-0.406,1.199-0.723,1.65
			c-0.318,0.45-0.705,0.793-1.162,1.028c-0.457,0.234-0.978,0.352-1.562,0.352c-0.601,0-1.13-0.105-1.587-0.316v-0.997
			c0.504,0.283,1.041,0.425,1.612,0.425c0.411,0,0.777-0.084,1.102-0.254c0.323-0.169,0.598-0.415,0.821-0.739
			c0.225-0.323,0.396-0.723,0.515-1.196s0.178-1.018,0.178-1.631h-0.025c-0.39,0.782-1.066,1.174-2.031,1.174
			c-0.39,0-0.747-0.068-1.073-0.206c-0.325-0.138-0.607-0.332-0.844-0.584s-0.421-0.552-0.553-0.898
			c-0.131-0.347-0.196-0.729-0.196-1.149c0-0.448,0.073-0.858,0.219-1.23c0.146-0.373,0.35-0.693,0.609-0.962
			c0.261-0.269,0.569-0.478,0.927-0.626c0.357-0.147,0.748-0.222,1.172-0.222c0.457,0,0.861,0.092,1.215,0.276
			c0.354,0.184,0.65,0.452,0.893,0.806c0.24,0.354,0.425,0.788,0.552,1.305S1667.922,1293.782,1667.922,1294.446z
			 M1666.799,1293.513c0-0.352-0.046-0.671-0.137-0.958c-0.092-0.288-0.217-0.535-0.378-0.74s-0.353-0.363-0.574-0.476
			c-0.223-0.112-0.465-0.169-0.728-0.169c-0.249,0-0.482,0.05-0.697,0.149c-0.217,0.1-0.403,0.239-0.563,0.419
			c-0.158,0.18-0.283,0.394-0.374,0.642c-0.091,0.247-0.137,0.517-0.137,0.81c0,0.321,0.044,0.609,0.13,0.863
			c0.087,0.254,0.211,0.468,0.371,0.644c0.161,0.176,0.355,0.311,0.581,0.403c0.227,0.093,0.478,0.14,0.753,0.14
			c0.24,0,0.469-0.046,0.682-0.137c0.214-0.091,0.4-0.214,0.559-0.368c0.159-0.154,0.283-0.336,0.375-0.546
			C1666.753,1293.98,1666.799,1293.755,1666.799,1293.513z"/>
		<path fill="#F5F5F5" d="M1674.452,1299.544h-1.041v-7.865c-0.081,0.081-0.198,0.173-0.353,0.276s-0.328,0.206-0.521,0.308
			s-0.396,0.197-0.609,0.286s-0.422,0.159-0.625,0.21v-1.055c0.229-0.063,0.471-0.148,0.727-0.257
			c0.257-0.107,0.508-0.229,0.756-0.361c0.247-0.134,0.481-0.273,0.701-0.419c0.22-0.146,0.411-0.289,0.571-0.429h0.394V1299.544z"
			/>
	</g>
</g>
</svg>
