<?xml version="1.0" encoding="utf-8"?>
<!-- Generator: Adobe Illustrator 16.0.0, SVG Export Plug-In . SVG Version: 6.00 Build 0)  -->
<!DOCTYPE svg PUBLIC "-//W3C//DTD SVG 1.1//EN" "http://www.w3.org/Graphics/SVG/1.1/DTD/svg11.dtd">
<svg version="1.1" id="圖層_1" xmlns="http://www.w3.org/2000/svg" xmlns:xlink="http://www.w3.org/1999/xlink" x="0px" y="0px"
	 width="32.875px" height="28.75px" viewBox="-9.744 -8.817 32.875 28.75" enable-background="new -9.744 -8.817 32.875 28.75"
	 xml:space="preserve">
<g>
	<g>
		<g>
			<g>
				<path fill="#FFFFFF" d="M10.883,12.397c-1.035,0-1.898-0.859-1.898-1.9V4.189c0-1.034,0.861-1.863,1.898-1.863
					c0.951,0,1.758,0.727,1.881,1.648h0.428C13.067,2.771,12.088,1.9,10.899,1.9c-0.926,0-1.725,0.541-2.09,1.331
					c-0.367-0.79-1.164-1.342-2.093-1.342c-0.926,0-1.726,0.545-2.091,1.336C4.26,2.436,3.442,1.885,2.516,1.885
					c-1.272,0-2.325,1.033-2.325,2.304v6.312c0,1.271,1.054,2.303,2.325,2.303c0.926,0,1.735-0.547,2.101-1.336
					c0.366,0.789,1.17,1.336,2.095,1.336c0.931,0,1.729-0.547,2.095-1.336c0.367,0.789,1.168,1.354,2.092,1.354
					c1.016,0,1.873-0.689,2.186-1.543h-0.459C12.334,11.917,11.655,12.397,10.883,12.397z M4.803,3.975v0.071h0.042
					c0.09-0.993,0.877-1.719,1.855-1.719c1.033,0,1.861,0.828,1.861,1.863v6.311c0,1.037-0.846,1.877-1.879,1.877
					c-1.039,0-1.878-0.842-1.878-1.877V7.237H4.376v3.264c0,1.037-0.844,1.875-1.878,1.875c-1.036,0-1.877-0.838-1.877-1.875V4.189
					c0-1.034,0.858-1.863,1.896-1.863c0.977,0,1.797,0.727,1.886,1.72"/>
				<path fill="#FFFFFF" d="M13.338,3.975c0,0.035-0.016,0.071-0.037,0.098c-0.029,0.03-0.068,0.047-0.107,0.047h-0.43
					c-0.07,0-0.135-0.052-0.143-0.125C12.506,3.126,11.76,2.47,10.883,2.47c-0.967,0-1.754,0.77-1.754,1.718v6.313
					c0,0.947,0.805,1.752,1.754,1.752c0.686,0,1.334-0.416,1.613-1.031c0.021-0.055,0.072-0.088,0.129-0.088h0.457
					c0.045,0,0.092,0.023,0.119,0.061c0.025,0.039,0.033,0.086,0.016,0.133c-0.354,0.961-1.309,1.637-2.32,1.637
					c-0.854,0-1.645-0.457-2.09-1.193c-0.443,0.721-1.24,1.18-2.096,1.18c-0.86,0-1.655-0.457-2.096-1.18
					c-0.442,0.721-1.238,1.18-2.101,1.18c-1.36,0-2.466-1.102-2.466-2.449V4.189c0-1.351,1.106-2.449,2.466-2.449
					c0.867,0,1.667,0.455,2.109,1.181c0.442-0.724,1.234-1.177,2.092-1.177c0.854,0,1.65,0.457,2.096,1.184
					c0.436-0.72,1.229-1.171,2.088-1.171c1.281,0,2.305,0.928,2.436,2.204C13.338,3.966,13.338,3.973,13.338,3.975z M12.887,3.832
					h0.141c-0.184-1.043-1.055-1.784-2.129-1.784c-0.838,0-1.607,0.488-1.959,1.245C8.914,3.346,8.867,3.376,8.811,3.376
					S8.703,3.346,8.678,3.292C8.323,2.527,7.553,2.03,6.716,2.03S5.11,2.522,4.755,3.286c-0.023,0.052-0.074,0.085-0.13,0.085
					c-0.059,0-0.108-0.033-0.133-0.083C4.14,2.522,3.362,2.029,2.516,2.029c-1.201,0-2.18,0.969-2.18,2.159v6.313
					c0,1.188,0.979,2.158,2.18,2.158c0.841,0,1.618-0.492,1.969-1.258c0.023-0.051,0.075-0.084,0.13-0.084
					c0.058,0,0.107,0.033,0.131,0.084c0.353,0.766,1.125,1.258,1.964,1.258c0.838,0,1.611-0.492,1.967-1.258
					c0.021-0.051,0.072-0.084,0.129-0.084c0.055,0,0.105,0.033,0.131,0.084c0.357,0.773,1.129,1.273,1.961,1.273
					c0.822,0,1.605-0.506,1.967-1.256h-0.148c-0.344,0.674-1.068,1.119-1.834,1.119c-1.107,0-2.041-0.936-2.041-2.043V4.189
					c0-1.106,0.918-2.005,2.041-2.005C11.86,2.184,12.698,2.884,12.887,3.832z M8.705,4.189v6.312c0,1.115-0.906,2.023-2.024,2.023
					c-1.114,0-2.024-0.906-2.024-2.023V7.38H4.519v3.117c0,1.119-0.904,2.027-2.021,2.027s-2.025-0.908-2.025-2.027V4.189
					c0-1.106,0.918-2.005,2.042-2.005c1.064,0,1.936,0.795,2.029,1.85c0.011,0.079-0.052,0.148-0.128,0.155
					c-0.082,0.008-0.15-0.051-0.158-0.132C4.179,3.155,3.427,2.47,2.516,2.47c-0.968,0-1.753,0.77-1.753,1.718v6.313
					c0,0.957,0.778,1.736,1.735,1.736c0.956,0,1.734-0.779,1.734-1.736V7.237c0-0.082,0.065-0.145,0.145-0.145h0.426
					c0.078,0,0.144,0.063,0.144,0.145v3.264c0,0.957,0.777,1.736,1.736,1.736c0.957,0,1.736-0.779,1.736-1.736V4.189
					c0-0.963-0.754-1.717-1.717-1.717c-0.91,0-1.627,0.667-1.71,1.589C4.981,4.131,4.921,4.189,4.844,4.189H4.803
					c-0.081,0-0.145-0.063-0.145-0.142V3.975c0-0.049,0.025-0.095,0.067-0.12c0.168-0.979,0.973-1.67,1.974-1.67
					C7.826,2.184,8.705,3.063,8.705,4.189z"/>
			</g>
			<g>
				<path fill="#FFFFFF" d="M10.899,12.858c-0.877,0-1.691-0.512-2.092-1.313c-0.395,0.789-1.209,1.295-2.096,1.295
					c-0.884,0-1.7-0.506-2.095-1.295c-0.397,0.789-1.213,1.295-2.101,1.295c-1.303,0-2.357-1.049-2.357-2.34V4.189
					c0-1.289,1.055-2.34,2.357-2.34c0.89,0,1.714,0.505,2.108,1.295c0.392-0.785,1.208-1.292,2.092-1.292
					c0.886,0,1.696,0.509,2.093,1.297c0.395-0.782,1.203-1.286,2.09-1.286c1.225,0,2.199,0.887,2.328,2.108l0.004,0.038h-0.498
					l-0.006-0.03c-0.119-0.923-0.912-1.618-1.844-1.618c-1.025,0-1.861,0.82-1.861,1.827v6.309c0,1.01,0.852,1.865,1.861,1.865
					c0.723,0,1.412-0.443,1.711-1.098l0.01-0.02h0.527l-0.014,0.043C12.776,12.216,11.867,12.858,10.899,12.858z M8.807,11.384
					l0.031,0.07c0.375,0.809,1.184,1.334,2.061,1.334c0.924,0,1.791-0.604,2.131-1.475h-0.381c-0.314,0.672-1.02,1.117-1.766,1.117
					c-1.047,0-1.932-0.885-1.932-1.93V4.189c0-1.046,0.867-1.899,1.932-1.899c0.955,0,1.771,0.708,1.91,1.649h0.359
					c-0.141-1.165-1.078-2.002-2.252-2.002c-0.883,0-1.691,0.514-2.061,1.309L8.811,3.314L8.776,3.247
					c-0.373-0.803-1.182-1.323-2.06-1.323c-0.88,0-1.688,0.518-2.062,1.317L4.625,3.31L4.592,3.24c-0.373-0.8-1.188-1.32-2.077-1.32
					c-1.261,0-2.29,1.018-2.29,2.269v6.313c0,1.25,1.028,2.268,2.29,2.268c0.885,0,1.695-0.518,2.067-1.316l0.033-0.07l0.032,0.072
					c0.37,0.799,1.182,1.316,2.063,1.316c0.883,0,1.69-0.518,2.063-1.316L8.807,11.384z M6.682,12.417
					c-1.057,0-1.914-0.859-1.914-1.916V7.274H4.414v3.227c0,1.057-0.862,1.916-1.917,1.916c-1.058,0-1.913-0.859-1.913-1.916V4.189
					c0-1.046,0.865-1.899,1.931-1.899c1.006,0,1.831,0.752,1.923,1.751L4.367,4.05C4.279,3.087,3.485,2.361,2.514,2.361
					c-1.027,0-1.862,0.822-1.862,1.827v6.313c0,1.016,0.826,1.844,1.844,1.844c1.018,0,1.844-0.828,1.844-1.844V7.202h0.494v3.299
					c0,1.016,0.829,1.846,1.847,1.846c1.019,0,1.845-0.83,1.845-1.846V4.189c0-1.022-0.803-1.827-1.826-1.827
					c-0.966,0-1.73,0.708-1.82,1.688L4.878,4.083H4.767V3.975h0.051C4.937,2.995,5.72,2.29,6.699,2.29
					c1.064,0,1.896,0.835,1.896,1.899v6.312C8.596,11.558,7.733,12.417,6.682,12.417z"/>
				<path fill="#FFFFFF" d="M13.375,4.012c0,0.035-0.016,0.071-0.037,0.098c-0.029,0.03-0.068,0.046-0.109,0.046h-0.498
					c-0.074,0-0.137-0.057-0.145-0.13c-0.115-0.877-0.846-1.519-1.703-1.519c-0.947,0-1.717,0.754-1.717,1.683v6.312
					c0,0.928,0.783,1.717,1.717,1.717c0.67,0,1.303-0.406,1.58-1.012c0.023-0.053,0.086-0.105,0.143-0.105h0.527
					c0.045,0,0.09,0.023,0.115,0.063c0.025,0.033,0.033,0.088,0.02,0.127l-0.016,0.049c-0.359,0.98-1.326,1.664-2.354,1.664
					c-0.838,0-1.639-0.453-2.092-1.168c-0.453,0.707-1.248,1.146-2.096,1.146c-0.849,0-1.644-0.439-2.095-1.146
					c-0.457,0.707-1.256,1.146-2.101,1.146c-1.379,0.004-2.503-1.111-2.503-2.48V4.189c0-1.37,1.124-2.482,2.504-2.482
					c0.851,0,1.656,0.441,2.109,1.146C5.074,2.15,5.873,1.709,6.716,1.709c0.843,0,1.64,0.443,2.095,1.15
					c0.449-0.698,1.244-1.14,2.09-1.14c1.299,0,2.338,0.942,2.471,2.235l0.002,0.043C13.375,4.003,13.375,4.007,13.375,4.012z
					 M12.914,3.796h0.066c-0.189-1.003-1.043-1.714-2.082-1.714c-0.824,0-1.584,0.484-1.924,1.226L8.942,3.376
					C8.918,3.425,8.867,3.458,8.813,3.46c-0.059,0-0.105-0.029-0.133-0.079L8.647,3.31c-0.35-0.753-1.107-1.242-1.931-1.242
					c-0.824,0-1.58,0.485-1.93,1.234l-0.03,0.066C4.733,3.42,4.684,3.456,4.625,3.456c-0.059,0-0.108-0.031-0.133-0.084L4.463,3.303
					c-0.349-0.75-1.115-1.237-1.947-1.237c-1.182,0-2.145,0.953-2.145,2.123v6.312c0,1.174,0.96,2.123,2.145,2.123
					c0.828,0,1.587-0.484,1.936-1.23l0.034-0.076c0.022-0.051,0.073-0.078,0.129-0.078c0.058,0,0.107,0.031,0.131,0.08l0.033,0.068
					c0.342,0.754,1.102,1.238,1.931,1.238c0.827,0,1.583-0.486,1.932-1.236l0.033-0.068c0.023-0.051,0.074-0.082,0.131-0.082
					c0.053,0,0.105,0.031,0.129,0.082l0.033,0.068c0.354,0.762,1.109,1.252,1.928,1.252c0.787,0,1.545-0.475,1.908-1.184h-0.068
					c-0.357,0.674-1.09,1.119-1.857,1.119c-1.125,0-2.076-0.949-2.076-2.076V4.189c0-1.125,0.934-2.041,2.076-2.041
					C11.862,2.148,12.713,2.847,12.914,3.796z M8.739,4.189v6.312c0,1.137-0.922,2.061-2.058,2.061c-1.136,0-2.06-0.924-2.06-2.061
					V7.419H4.556v3.082c0,1.135-0.925,2.061-2.06,2.061c-1.136,0-2.06-0.926-2.06-2.061V4.189c0-1.125,0.93-2.041,2.077-2.041
					c1.078,0,1.969,0.811,2.065,1.881c0.007,0.087-0.05,0.149-0.129,0.158L4.38,4.192C4.344,4.197,4.307,4.185,4.276,4.16
					c-0.031-0.024-0.049-0.058-0.05-0.096c-0.081-0.89-0.818-1.558-1.71-1.558c-0.946,0-1.718,0.754-1.718,1.683v6.312
					c0,0.936,0.761,1.699,1.7,1.699c0.938,0,1.7-0.764,1.7-1.699V7.202c0-0.076,0.065-0.143,0.144-0.143h0.493
					c0.081,0,0.144,0.066,0.144,0.143v3.299c0,0.936,0.766,1.699,1.704,1.699c0.936,0,1.701-0.764,1.701-1.699V4.189
					c0-0.942-0.742-1.683-1.683-1.683c-0.891,0-1.592,0.658-1.675,1.558c-0.01,0.074-0.073,0.161-0.149,0.161H4.767
					c-0.079,0-0.143-0.065-0.143-0.143V3.975c0-0.049,0.023-0.095,0.066-0.12c0.171-0.996,0.999-1.707,2.009-1.707
					C7.842,2.148,8.739,3.043,8.739,4.189z"/>
			</g>
		</g>
		<g>
			<rect x="2.712" y="7.202" fill="#FFFFFF" width="1.968" height="0.504"/>
			<path fill="#FFFFFF" d="M4.823,7.202v0.504c0,0.076-0.064,0.143-0.143,0.143H2.712c-0.078,0-0.142-0.066-0.142-0.143V7.202
				c0-0.076,0.063-0.143,0.142-0.143H4.68C4.759,7.06,4.823,7.124,4.823,7.202z M4.534,7.562V7.349H2.857v0.213H4.534z"/>
		</g>
		<g>
			<rect x="4.36" y="3.973" fill="#FFFFFF" width="0.518" height="1.655"/>
			<path fill="#FFFFFF" d="M5.023,3.973v1.655c0,0.081-0.066,0.147-0.144,0.147H4.36c-0.08,0-0.142-0.066-0.142-0.147V3.973
				c0-0.079,0.062-0.144,0.142-0.144h0.518C4.957,3.829,5.023,3.894,5.023,3.973z M4.736,5.487V4.116H4.506v1.372H4.736z"/>
		</g>
	</g>
</g>
</svg>
