<?xml version="1.0" encoding="utf-8"?>
<!-- Generator: Adobe Illustrator 16.0.0, SVG Export Plug-In . SVG Version: 6.00 Build 0)  -->
<!DOCTYPE svg PUBLIC "-//W3C//DTD SVG 1.1//EN" "http://www.w3.org/Graphics/SVG/1.1/DTD/svg11.dtd">
<svg version="1.1" id="圖層_1" xmlns="http://www.w3.org/2000/svg" xmlns:xlink="http://www.w3.org/1999/xlink" x="0px" y="0px"
	 width="65.518px" height="65.189px" viewBox="0 0 65.518 65.189" enable-background="new 0 0 65.518 65.189" xml:space="preserve">
<path fill="#FFFFFF" d="M31.743,7.042c0.945-1.04,2.562-1.116,3.601-0.169c1.04,0.945,1.116,2.561,0.169,3.6
	c-0.946,1.04-2.56,1.116-3.6,0.17C30.873,9.696,30.797,8.082,31.743,7.042z M32.385,10.123c0.754,0.686,1.922,0.63,2.609-0.123
	c0.685-0.753,0.631-1.921-0.123-2.608c-0.754-0.685-1.922-0.631-2.608,0.124C31.577,8.269,31.631,9.436,32.385,10.123z
	 M33.322,9.093c-0.183-0.167-0.201-0.453-0.028-0.641c0.166-0.185,0.459-0.198,0.641-0.03c0.185,0.166,0.198,0.457,0.03,0.641
	C33.794,9.251,33.506,9.261,33.322,9.093z"/>
<path fill="#FFFFFF" d="M38.087,7.063c1.22-0.696,2.78-0.27,3.477,0.951c0.696,1.222,0.27,2.781-0.952,3.478
	s-2.778,0.27-3.477-0.951C36.438,9.317,36.866,7.759,38.087,7.063z M37.745,10.191c0.505,0.886,1.633,1.193,2.52,0.688
	c0.884-0.505,1.193-1.631,0.688-2.519c-0.504-0.886-1.633-1.194-2.519-0.688C37.548,8.178,37.239,9.305,37.745,10.191z
	 M38.953,9.501c-0.122-0.215-0.052-0.494,0.171-0.621c0.215-0.122,0.497-0.044,0.62,0.171s0.045,0.497-0.17,0.621
	C39.353,9.797,39.077,9.716,38.953,9.501z"/>
<path fill="#FFFFFF" stroke="#FFFFFF" stroke-width="0.1215" stroke-miterlimit="10" d="M11.299,40.172
	c0.104-0.311,0.197-0.586,0.101-0.895c-0.124-0.393-0.612-0.665-1.075-0.753l0.247-0.69c0.68,0.162,1.313,0.56,1.527,1.241
	c0.132,0.421,0.059,0.824-0.078,1.206c-0.104,0.308-0.199,0.577-0.103,0.885c0.128,0.4,0.609,0.678,1.077,0.76l-0.245,0.691
	c-0.681-0.165-1.313-0.559-1.527-1.239C11.087,40.949,11.164,40.55,11.299,40.172z M9.598,40.709
	c0.104-0.313,0.196-0.588,0.103-0.895c-0.125-0.396-0.609-0.67-1.076-0.753L8.87,38.37c0.679,0.162,1.312,0.56,1.525,1.24
	c0.135,0.424,0.061,0.826-0.076,1.208c-0.104,0.309-0.198,0.576-0.102,0.884c0.125,0.4,0.616,0.674,1.077,0.762l-0.246,0.691
	c-0.683-0.17-1.314-0.561-1.529-1.239C9.386,41.486,9.462,41.087,9.598,40.709z"/>
<path fill="#FFFFFF" stroke="#FFFFFF" stroke-width="0.1215" stroke-miterlimit="10" d="M10.177,34.048
	c0.195-0.263,0.37-0.495,0.372-0.816c0.003-0.414-0.378-0.822-0.79-1.049l0.448-0.58c0.595,0.363,1.076,0.938,1.068,1.651
	c-0.004,0.44-0.199,0.804-0.445,1.121c-0.194,0.261-0.367,0.49-0.37,0.81c-0.005,0.421,0.37,0.83,0.788,1.057L10.8,36.819
	c-0.595-0.365-1.075-0.936-1.068-1.648C9.736,34.723,9.932,34.366,10.177,34.048z M8.396,34.034
	c0.194-0.264,0.368-0.498,0.372-0.817c0.004-0.414-0.371-0.823-0.789-1.05l0.446-0.58c0.596,0.362,1.076,0.936,1.069,1.648
	c-0.004,0.44-0.2,0.805-0.445,1.125c-0.194,0.262-0.369,0.486-0.371,0.809c-0.005,0.42,0.375,0.83,0.789,1.055l-0.449,0.579
	c-0.594-0.366-1.074-0.934-1.067-1.646C7.954,34.707,8.15,34.349,8.396,34.034z"/>
<g>
	
		<path fill="#1E4199" stroke="#FFFFFF" stroke-width="0.4807" stroke-linecap="round" stroke-linejoin="round" stroke-miterlimit="10" d="
		M47.957,45.316l0.841,3.232l-4.327,3.846l-0.841-3.23L47.957,45.316z M44.003,49.275c0.047,0.169,0.54,2.081,0.661,2.504
		l3.759-3.343c-0.046-0.171-0.539-2.083-0.659-2.504L44.003,49.275z"/>
</g>
<g>
	
		<path fill="#1E4199" stroke="#FFFFFF" stroke-width="0.4807" stroke-linecap="round" stroke-linejoin="round" stroke-miterlimit="10" d="
		M51.202,44.244l0.842,3.231l-4.328,3.849l-0.841-3.231L51.202,44.244z M47.249,48.203c0.046,0.171,0.539,2.083,0.659,2.503
		l3.76-3.341c-0.046-0.172-0.538-2.082-0.659-2.506L47.249,48.203z"/>
</g>
<g>
	<path fill="#FFFFFF" d="M47.067,16.744c-0.381-0.089-0.793-0.312-1.232-0.668c-0.575-0.466-0.893-0.999-0.947-1.604
		c-0.057-0.604,0.143-1.188,0.598-1.752c0.484-0.6,1.063-0.937,1.734-1.01c0.674-0.075,1.305,0.127,1.896,0.604
		c0.365,0.296,0.636,0.593,0.813,0.889l-0.658,0.813c-0.129-0.353-0.354-0.659-0.676-0.918c-0.353-0.285-0.726-0.403-1.12-0.356
		c-0.396,0.047-0.747,0.26-1.053,0.638c-0.294,0.362-0.425,0.735-0.396,1.114c0.03,0.38,0.22,0.71,0.563,0.989
		c0.33,0.266,0.696,0.43,1.101,0.49L47.067,16.744z"/>
	<path fill="#FFFFFF" d="M49.979,20.456l-0.795-0.961l0.479-1.369c0.038-0.104,0.066-0.199,0.092-0.286
		c0.022-0.087,0.04-0.167,0.046-0.242c0.008-0.074,0.004-0.142-0.01-0.204c-0.017-0.062-0.044-0.119-0.088-0.17l-0.187-0.226
		l-1.424,1.176l-0.691-0.837l3.718-3.073l1.097,1.328c0.746,0.902,0.782,1.631,0.108,2.188c-0.132,0.106-0.267,0.187-0.408,0.237
		c-0.143,0.05-0.287,0.076-0.437,0.076c-0.148,0-0.298-0.024-0.445-0.075c-0.148-0.049-0.295-0.123-0.435-0.219l-0.012,0.009
		c0.029,0.069,0.045,0.146,0.049,0.23s0,0.172-0.012,0.263s-0.029,0.184-0.053,0.277c-0.023,0.093-0.048,0.182-0.075,0.265
		L49.979,20.456z M51.184,15.621l-1.035,0.854l0.302,0.363c0.147,0.18,0.318,0.281,0.513,0.304c0.197,0.023,0.374-0.028,0.528-0.158
		c0.324-0.268,0.326-0.598,0.005-0.985L51.184,15.621z"/>
	<path fill="#FFFFFF" d="M51.435,23.249l-1.396-2.532l4.221-2.33l1.346,2.434l-0.774,0.429l-0.819-1.484l-0.938,0.519l0.762,1.381
		l-0.771,0.426l-0.764-1.381l-0.964,0.533l0.871,1.581L51.435,23.249z"/>
	<path fill="#FFFFFF" d="M52.988,27.881l-0.355-1.129l0.922-0.648l-0.516-1.637l-1.125-0.001l-0.354-1.123l5.127,0.228l0.389,1.229
		L52.988,27.881z M54.274,25.616l1.392-0.981c0.104-0.072,0.232-0.141,0.39-0.208l-0.009-0.025
		c-0.138,0.032-0.279,0.047-0.427,0.047l-1.717-0.012L54.274,25.616z"/>
	<path fill="#FFFFFF" d="M57.215,30.711l-0.169-1.364l-3.907,0.481l-0.134-1.081l3.908-0.482l-0.166-1.356l0.877-0.109l0.468,3.805
		L57.215,30.711z"/>
	<path fill="#FFFFFF" d="M53.215,32.76l0.019-1.086l4.821,0.083l-0.019,1.087L53.215,32.76z"/>
	<path fill="#FFFFFF" d="M57.283,38.483l-4.467-2.462l0.21-1.214l5.032-0.79l-0.201,1.152l-3.478,0.416
		c-0.189,0.021-0.354,0.026-0.491,0.015l-0.003,0.021c0.145,0.041,0.302,0.104,0.469,0.188l3.122,1.557L57.283,38.483z"/>
	<path fill="#FFFFFF" d="M51.321,40.691l1.024-2.704l4.51,1.705l-0.983,2.604l-0.827-0.313l0.6-1.587l-1.004-0.379l-0.558,1.477
		l-0.823-0.313l0.558-1.476l-1.03-0.39l-0.641,1.688L51.321,40.691z"/>
	<path fill="#FFFFFF" d="M35.305,52.819c0.396-0.369,0.937-0.637,1.615-0.796c0.756-0.177,1.399-0.106,1.934,0.21
		c0.533,0.313,0.887,0.84,1.059,1.573c0.173,0.738,0.075,1.396-0.292,1.972c-0.366,0.575-0.945,0.956-1.735,1.144
		c-0.498,0.114-0.952,0.148-1.364,0.101l-0.231-0.993c0.412,0.127,0.88,0.129,1.402,0.005c0.438-0.103,0.764-0.328,0.974-0.677
		c0.209-0.352,0.258-0.765,0.146-1.238c-0.11-0.483-0.324-0.826-0.634-1.033c-0.308-0.207-0.674-0.261-1.097-0.161
		c-0.253,0.058-0.445,0.143-0.576,0.249l0.214,0.917l0.939-0.222l0.196,0.845l-1.996,0.47L35.305,52.819z"/>
	<path fill="#FFFFFF" d="M30.479,52.616l1.247-0.02l0.771,1.228c0.058,0.094,0.112,0.178,0.166,0.251
		c0.053,0.072,0.105,0.136,0.158,0.188c0.055,0.051,0.109,0.09,0.167,0.118c0.058,0.026,0.12,0.039,0.187,0.037l0.293-0.004
		l-0.03-1.847l1.087-0.019l0.078,4.822l-1.721,0.027c-1.17,0.02-1.763-0.406-1.777-1.281c-0.003-0.168,0.021-0.323,0.07-0.469
		c0.049-0.143,0.12-0.271,0.212-0.387c0.093-0.119,0.205-0.218,0.336-0.303c0.132-0.086,0.28-0.152,0.442-0.203v-0.013
		c-0.072-0.021-0.143-0.058-0.21-0.105c-0.068-0.049-0.136-0.108-0.198-0.175c-0.063-0.065-0.125-0.137-0.183-0.214
		c-0.059-0.075-0.112-0.15-0.16-0.227L30.479,52.616z M33.502,56.577l-0.021-1.344l-0.471,0.01
		c-0.233,0.004-0.419,0.074-0.558,0.213c-0.142,0.137-0.211,0.308-0.208,0.511c0.007,0.421,0.263,0.627,0.767,0.617L33.502,56.577z"
		/>
	<path fill="#FFFFFF" d="M28.352,52.084c0.676,0.137,1.184,0.472,1.519,0.999c0.336,0.524,0.432,1.144,0.288,1.85
		c-0.153,0.748-0.493,1.309-1.021,1.682c-0.527,0.371-1.146,0.485-1.861,0.34c-0.674-0.138-1.175-0.472-1.5-0.997
		c-0.325-0.527-0.415-1.151-0.268-1.874c0.152-0.742,0.491-1.296,1.015-1.664C27.048,52.054,27.657,51.942,28.352,52.084z
		 M27.492,56.043c0.374,0.076,0.698-0.002,0.976-0.237c0.277-0.236,0.462-0.584,0.557-1.046c0.097-0.468,0.063-0.86-0.102-1.176
		c-0.165-0.319-0.424-0.515-0.78-0.586c-0.367-0.076-0.685-0.003-0.955,0.218c-0.269,0.221-0.452,0.565-0.548,1.035
		c-0.101,0.49-0.074,0.893,0.079,1.208C26.872,55.774,27.13,55.968,27.492,56.043z"/>
	<path fill="#FFFFFF" d="M23.686,50.532c0.624,0.296,1.037,0.736,1.237,1.33c0.201,0.595,0.146,1.216-0.163,1.868
		c-0.326,0.688-0.789,1.151-1.39,1.389c-0.601,0.236-1.23,0.198-1.89-0.114c-0.622-0.295-1.027-0.734-1.22-1.323
		c-0.191-0.59-0.129-1.218,0.188-1.884c0.324-0.687,0.784-1.142,1.381-1.373C22.427,50.193,23.045,50.229,23.686,50.532z
		 M21.909,54.174c0.344,0.164,0.679,0.164,1.004,0c0.324-0.161,0.588-0.456,0.79-0.881c0.204-0.435,0.265-0.822,0.181-1.168
		c-0.083-0.35-0.289-0.6-0.617-0.755c-0.339-0.161-0.665-0.165-0.979-0.016c-0.314,0.15-0.574,0.441-0.779,0.875
		c-0.214,0.452-0.284,0.852-0.211,1.192C21.371,53.767,21.575,54.017,21.909,54.174z"/>
	<path fill="#FFFFFF" d="M14.926,50.548l4.286-2.765l0.967,0.759l-1.688,4.808l-0.922-0.723l1.283-3.261
		c0.07-0.177,0.145-0.322,0.222-0.439l-0.017-0.011c-0.104,0.107-0.233,0.216-0.387,0.323L15.82,51.25L14.926,50.548z"/>
	<path fill="#FFFFFF" d="M11.66,46.802l3.384-0.817l1.307-1.11l0.704,0.828L15.763,46.8l-1.391,3.192l-0.805-0.948l0.867-1.756
		c0.019-0.03,0.093-0.146,0.229-0.34l-0.01-0.011c-0.142,0.083-0.26,0.138-0.356,0.165l-1.893,0.573L11.66,46.802z"/>
	<path fill="#FFFFFF" d="M12.048,27.83l-4.622-1.375l0.487-1.638c0.488-1.642,1.482-2.238,2.985-1.792
		c0.72,0.214,1.229,0.609,1.524,1.186c0.297,0.576,0.334,1.236,0.112,1.981L12.048,27.83z M8.583,25.666l2.93,0.872l0.153-0.517
		c0.134-0.451,0.104-0.846-0.09-1.183c-0.194-0.337-0.524-0.575-0.991-0.713c-0.44-0.131-0.825-0.106-1.153,0.073
		c-0.328,0.179-0.561,0.499-0.697,0.959L8.583,25.666z"/>
	<path fill="#FFFFFF" d="M14.943,20.678l-1.36,2.552l-4.254-2.27l1.31-2.454l0.78,0.416l-0.797,1.496l0.945,0.504l0.743-1.391
		l0.777,0.413l-0.742,1.393l0.973,0.52l0.85-1.594L14.943,20.678z"/>
	<path fill="#FFFFFF" d="M14.992,20.268l-0.85-0.662c0.249-0.053,0.477-0.145,0.682-0.274c0.204-0.13,0.379-0.288,0.521-0.472
		c0.084-0.107,0.147-0.21,0.191-0.305c0.043-0.096,0.067-0.184,0.075-0.265s-0.001-0.152-0.027-0.216s-0.067-0.116-0.122-0.159
		c-0.074-0.059-0.157-0.088-0.249-0.091c-0.091-0.004-0.19,0.012-0.296,0.047c-0.107,0.036-0.224,0.085-0.349,0.149
		c-0.125,0.065-0.256,0.138-0.395,0.217c-0.354,0.202-0.678,0.306-0.971,0.312c-0.292,0.007-0.565-0.088-0.818-0.285
		c-0.198-0.154-0.337-0.327-0.418-0.518c-0.08-0.19-0.113-0.391-0.099-0.599c0.015-0.209,0.07-0.42,0.168-0.635
		c0.098-0.214,0.224-0.422,0.381-0.624c0.153-0.199,0.303-0.364,0.445-0.499c0.144-0.134,0.289-0.247,0.439-0.337l0.793,0.617
		c-0.094,0.029-0.187,0.067-0.279,0.118c-0.092,0.049-0.181,0.104-0.265,0.167c-0.084,0.062-0.162,0.129-0.234,0.198
		c-0.071,0.071-0.135,0.142-0.189,0.213c-0.076,0.097-0.136,0.191-0.179,0.286c-0.045,0.095-0.07,0.183-0.079,0.264
		c-0.01,0.082-0.002,0.154,0.021,0.222c0.024,0.066,0.065,0.123,0.124,0.167c0.064,0.05,0.134,0.078,0.21,0.083
		c0.077,0.006,0.162-0.004,0.255-0.031c0.094-0.026,0.196-0.067,0.309-0.123c0.111-0.055,0.234-0.118,0.367-0.194
		c0.183-0.104,0.356-0.187,0.521-0.252c0.167-0.065,0.329-0.106,0.486-0.123s0.313-0.001,0.464,0.042s0.304,0.126,0.458,0.246
		c0.212,0.164,0.358,0.344,0.439,0.537c0.082,0.192,0.113,0.393,0.096,0.601c-0.019,0.207-0.079,0.417-0.183,0.631
		c-0.104,0.213-0.234,0.422-0.394,0.625c-0.163,0.209-0.335,0.394-0.518,0.554C15.351,20.063,15.17,20.185,14.992,20.268z"/>
	<path fill="#FFFFFF" d="M18.42,16.606l-0.778,0.759l-3.364-3.456l0.779-0.759L18.42,16.606z"/>
	<path fill="#FFFFFF" d="M22.12,13.4c-0.23,0.492-0.633,0.938-1.205,1.34c-0.637,0.444-1.261,0.619-1.873,0.524
		c-0.612-0.096-1.134-0.452-1.566-1.069c-0.435-0.619-0.588-1.267-0.462-1.938s0.523-1.24,1.188-1.705
		c0.419-0.293,0.827-0.494,1.229-0.602l0.585,0.835c-0.429,0.037-0.864,0.209-1.304,0.518c-0.37,0.259-0.586,0.589-0.651,0.992
		c-0.063,0.402,0.043,0.803,0.323,1.204c0.285,0.406,0.609,0.646,0.973,0.724c0.363,0.076,0.723-0.009,1.077-0.258
		c0.213-0.148,0.361-0.297,0.443-0.445l-0.54-0.771l-0.791,0.553l-0.497-0.71l1.68-1.177L22.12,13.4z"/>
	<path fill="#FFFFFF" d="M26.938,11.745l-1.021,0.4l-2.958-2.094c-0.174-0.123-0.297-0.218-0.372-0.284l-0.012,0.005
		c0.078,0.151,0.182,0.392,0.31,0.717l0.969,2.467l-0.955,0.374l-1.763-4.489l1.089-0.427l2.854,2.033
		c0.13,0.091,0.253,0.184,0.37,0.277l0.012-0.005c-0.059-0.098-0.146-0.301-0.268-0.607L24.22,7.631l0.955-0.375L26.938,11.745z"/>
</g>
</svg>
